<?xml version="1.0" standalone="no"?>
<!DOCTYPE svg PUBLIC "-//W3C//DTD SVG 1.1//EN" "http://www.w3.org/Graphics/SVG/1.1/DTD/svg11.dtd" >
<svg xmlns="http://www.w3.org/2000/svg">
<metadata>
Created by FontPrep 20130207 at Thu Jul  9 01:03:57 2015
 By Boss
Copyright (c) 1991 ParaGraph Intl, (c) 1998 ParaType Inc., ParaType Ltd. All rights reserved.
</metadata>
<defs>
<font id="c34edb5422bf3891786fb9174aaf032c" horiz-adv-x='1024' >
  <font-face 
    font-family="JournalSansNew-Display"
    font-weight="250"
    font-stretch="normal"
    units-per-em="2048"
    panose-1="2 11 6 2 2 2 3 2 3 3"
    ascent="1657"
    descent="-391"
    x-height="655"
    cap-height="1364"
    bbox="-801 -741.015 2623 1884"
    underline-thickness="102"
    underline-position="-102"
    unicode-range="U+0020-FEFF"
  />
<missing-glyph horiz-adv-x="477" 
 />
    <glyph glyph-name="afii10017.var.accented" unicode="&#x410;`" horiz-adv-x="1361" 
d="M760 1518h-107l166 258h228zM674 1063l-254 -549h514zM993 375h-641l-174 -375h-162l666 1393l664 -1393h-179z" />
    <glyph glyph-name="afii10022.var.accented" unicode="&#x415;`" horiz-adv-x="1142" 
d="M604 1518h-106l166 258h227zM365 770h593v-141h-593v-488h659v-141h-811v1364h805v-141h-653v-453z" />
    <glyph glyph-name="afii10026.var.accented" unicode="&#x418;`" horiz-adv-x="1556" 
d="M801 1518h-107l166 258h227zM1192 0v1030l-979 -1059v1393h152v-1022l978 1053v-1395h-151z" />
    <glyph glyph-name="afii10032.var.accented" unicode="&#x41e;`" horiz-adv-x="1660" 
d="M879 1518h-107l166 258h227zM831 1253q-249 1 -407 -167t-158 -405t158 -405q160 -166 408 -166t405 164q158 164 158 406q-1 147 -63 276t-195 213t-306 84zM102 689q0 298 205 502t527 204q170 1 313 -63t231 -171q180 -211 180 -489t-200 -490q-202 -213 -526 -213
t-527 211t-203 509z" />
    <glyph glyph-name="afii10037.var.accented" unicode="&#x423;`" horiz-adv-x="1161" 
d="M647 1518h-106l166 258h227zM279 111q85 0 157 60t111 155l-531 1038h170l439 -866l352 866h160l-416 -995q-166 -399 -438 -400q-63 0 -138 23v137q49 -18 134 -18z" />
    <glyph glyph-name="afii10045.var.accented" unicode="&#x42b;`" horiz-adv-x="1753" 
d="M897 1518h-106l165 258h228zM365 686v-545h243q315 0 316 273q0 128 -83 200t-229 72h-247zM213 1364h152v-537h260q233 0 346 -112q117 -111 117 -282t-93 -294q-104 -139 -379 -139h-403v1364zM1540 0h-151v1364h151v-1364z" />
    <glyph glyph-name="afii10047.var.accented" unicode="&#x42d;`" horiz-adv-x="1370" 
d="M651 1518h-106l166 258h227zM577 113q225 1 369 151t164 369h-680v143h672q-24 171 -151 316q-62 72 -159 116t-220 43q-124 1 -214 -33t-188 -108l-80 107q209 178 488 178q210 1 370 -105t240 -264t80 -346q0 -301 -199 -506q-199 -204 -498 -204t-489 184l90 106
q180 -147 405 -147z" />
    <glyph glyph-name="afii10048.var.accented" unicode="&#x42e;`" horiz-adv-x="2215" 
d="M1188 1518h-107l166 258h228zM1407 1253q-243 1 -393 -165t-150 -407t148 -407q152 -164 398 -164t392 164q147 162 148 406q0 147 -56 276t-186 213q-129 84 -301 84zM365 672v-672h-152v1364h152v-553l344 -2q39 258 231 422q193 164 471 164q139 0 257 -42
q215 -77 331 -268q115 -192 115 -403q0 -291 -192 -502t-510 -211t-515 207q-195 207 -199 496h-333z" />
    <glyph glyph-name="afii10049.var.accented" unicode="&#x42f;`" horiz-adv-x="1257" 
d="M719 1518h-107l166 258h228zM891 676v547h-250q-334 0 -334 -281q0 -114 90 -190t246 -76h248zM891 0v535h-248v2l-393 -537h-189l398 549q-315 104 -316 395q0 180 120 300t335 120h446v-1364h-153z" />
    <glyph glyph-name="afii10023.var.accented" unicode="&#x401;`" horiz-adv-x="1142" 
d="M365 770h593v-141h-593v-488h659v-141h-811v1364h805v-141h-653v-453zM981 1686v-166h-162v166h162zM406 1686v-166h-164v166h164zM598 1636h-80l152 248h225z" />
    <glyph glyph-name="afii10065.var.accented" unicode="&#x430;`" horiz-adv-x="741" 
d="M418 774h-101l138 256h213zM188 201q0 -100 144 -101q78 0 131 27t53 73t-47 74t-122 27t-117 -27t-42 -73zM370 672q132 0 202 -54t71 -149v-469h-129v47q-90 -63 -210 -63t-188 57t-69 155q0 98 74 155q73 59 191 59t202 -48v33q0 84 -33 122t-129 38t-194 -37l-23 109
q103 45 235 45z" />
    <glyph glyph-name="afii10070.var.accented" unicode="&#x435;`" horiz-adv-x="827" 
d="M477 774h-100l137 256h213zM426 549q-168 0 -219 -141h409q-12 63 -63 102t-127 39zM446 -16q-184 0 -282 102q-96 102 -96 248t104 241q110 97 258 97t238 -97q92 -94 92 -223q0 -23 -6 -53h-557q7 -82 73 -137t164 -56q135 1 221 91l90 -74q-115 -139 -299 -139z" />
    <glyph glyph-name="afii10074.var.accented" unicode="&#x438;`" horiz-adv-x="798" 
d="M461 774h-101l138 256h213zM557 0v391l-446 -405v669h131v-385l446 400v-670h-131z" />
    <glyph glyph-name="afii10080.var.accented" unicode="&#x43e;`" horiz-adv-x="864" 
d="M504 774h-101l138 256h213zM209 330q0 -100 62 -162q63 -62 163 -62t160 62t61 160q0 100 -62 160q-61 60 -161 60t-162 -58q-62 -60 -61 -160zM426 -16q-168 0 -263 102t-95 241q0 140 98 242q98 103 263 103t265 -99q102 -95 102 -249t-100 -247q-102 -93 -270 -93z
" />
    <glyph glyph-name="afii10085.var.accented" unicode="&#x443;`" horiz-adv-x="704" 
d="M397 774h-100l137 256h213zM410 315l145 340h143l-438 -970h-137l164 360l-281 610h150l149 -342l35 -104l14 -45q31 88 56 151z" />
    <glyph glyph-name="afii10093.var.accented" unicode="&#x44b;`" horiz-adv-x="1036" 
d="M551 774h-100l137 256h213zM242 307v-190h153q127 0 127 100q0 90 -127 90h-153zM111 655h131v-231h174q120 0 184 -59t64 -145t-58 -154q-58 -66 -207 -66h-288v655zM926 0h-131v655h131v-655z" />
    <glyph glyph-name="afii10095.var.accented" unicode="&#x44d;`" horiz-adv-x="759" 
d="M414 774h-101l138 256h213zM233 285v108h314q-19 72 -79 113t-151 41t-182 -62l-53 103q106 82 242 82q176 0 272 -104t96 -242t-95 -240t-261 -102t-277 92l72 96q77 -66 181 -66t164 48t75 133h-318z" />
    <glyph glyph-name="afii10096.var.accented" unicode="&#x44e;`" horiz-adv-x="1128" 
d="M543 774h-101l138 256h213zM502 329q0 -99 58 -159t152 -61q94 0 149 60q57 59 57 159t-58 160t-150 60t-150 -60t-58 -159zM242 655v-239h127q31 112 121 184t232 72q141 0 240 -98t99 -250t-98 -246q-97 -94 -249 -94t-246 89t-108 220h-118v-293h-131v655h131z" />
    <glyph glyph-name="afii10097.var.accented" unicode="&#x44f;`" horiz-adv-x="710" 
d="M403 774h-100l137 256h213zM469 352v187h-137q-53 0 -82 -25t-29 -65q0 -96 129 -97h119zM336 655h264v-655h-131v250h-100l-168 -250h-166l186 260q-65 18 -103 70t-38 133q0 82 70 137t186 55z" />
    <glyph glyph-name="afii10071.var.accented" unicode="&#x451;`" horiz-adv-x="827" 
d="M469 1042h-100l137 256h213zM356 977v-150h-143v150h143zM629 977v-150h-144v150h144zM426 549q-168 0 -219 -141h409q-12 63 -63 102t-127 39zM446 -16q-184 0 -282 102q-96 102 -96 248t104 241q110 97 258 97t238 -97q92 -94 92 -223q0 -23 -6 -53h-557q7 -82 73 -137
t164 -56q135 1 221 91l90 -74q-115 -139 -299 -139z" />
    <glyph glyph-name="fi" unicode="fi" horiz-adv-x="784" 
d="M631 1098h-131v51q0 92 -90 92q-72 0 -99 -44t-26 -146v-396h346v-655h-131v532h-215v-532h-133v532h-132v123h132v447q0 83 39 161q53 101 212 101q227 0 228 -215v-51z" />
    <glyph glyph-name="fl" unicode="fl" horiz-adv-x="745" 
d="M285 655h215v574q-38 12 -100 12t-89 -45t-26 -145v-396zM633 1354v-1354h-133v532h-215v-532h-133v532h-132v123h132v447q0 100 55 181t194 81q48 0 99 -10h133z" />
    <glyph glyph-name=".notdef" horiz-adv-x="477" 
 />
    <glyph glyph-name=".null" horiz-adv-x="0" 
 />
    <glyph glyph-name="nonmarkingreturn" horiz-adv-x="681" 
 />
    <glyph glyph-name="space" unicode=" " horiz-adv-x="477" 
 />
    <glyph glyph-name="exclam" unicode="!" horiz-adv-x="475" 
d="M154 0v190h176v-190h-176zM287 412h-101l-45 952h193z" />
    <glyph glyph-name="quotedbl" unicode="&#x22;" horiz-adv-x="817" 
d="M467 1364h176l-51 -424h-76zM174 1364h176l-45 -424h-82z" />
    <glyph glyph-name="numbersign" unicode="#" horiz-adv-x="1775" 
d="M1098 532l71 373h-452q-7 -44 -35 -182l-37 -191h453zM1210 393l-75 -393h-136l74 393h-452l-70 -393h-137l75 393h-339l28 139h336l37 187q29 145 35 186h-348l28 142h342l60 329h135l-62 -329h453l63 329h134l-64 -329h344l-26 -142h-342l-70 -373h354l-24 -139h-353z
" />
    <glyph glyph-name="dollar" unicode="$" horiz-adv-x="862" 
d="M522 -240h-123v207q-221 6 -379 105l64 127q172 -86 316 -86t210 59q64 58 64 146t-68 162t-207 167l-112 78q-121 84 -170 152q-49 69 -49 185t93 215t238 112v155h123v-151q115 -10 234 -78l-60 -119q-110 57 -224 57t-176 -58t-62 -139t73 -147l62 -51l233 -166
q233 -170 234 -366q0 -129 -83 -222q-84 -91 -231 -122v-222z" />
    <glyph glyph-name="percent" unicode="%" horiz-adv-x="1804" 
d="M1540 1327l-1153 -1323l-88 86l1145 1325zM1391 82q109 0 165 71t56 191t-51 201q-51 82 -165 82t-172 -76t-58 -201q0 -124 58 -196t167 -72zM1034 344q0 168 95 284t265 116t260 -114q89 -114 89 -281q1 -167 -101 -275t-258 -109t-252 105q-98 106 -98 274zM428 778
q109 0 165 71t56 191t-51 202t-165 81q-114 0 -172 -76q-58 -77 -58 -201t58 -196t167 -72zM72 1041q0 167 94 283t265 116t260 -114t89 -280t-101 -276q-101 -108 -257 -108t-253 106t-97 273z" />
    <glyph glyph-name="ampersand" unicode="&#x26;" horiz-adv-x="1363" 
d="M690 1251q-148 0 -147 -99q0 -46 71 -153l357 -546q70 158 135 325l129 -41q-110 -283 -178 -422l194 -315h-155l-127 186q-154 -217 -404 -217q-205 0 -336 127q-127 130 -127 304t120 303t292 176l-33 55q-18 29 -47 82q-41 86 -41 174t74 146q75 58 199 58t249 -61
l-57 -127q-88 45 -168 45zM264 415q0 -124 86 -214q88 -88 223 -88q197 -1 314 202l-314 476v-3q-143 -57 -226 -153t-83 -220z" />
    <glyph glyph-name="quotesingle" unicode="'" horiz-adv-x="522" 
d="M174 1364h174l-45 -424h-80z" />
    <glyph glyph-name="parenleft" unicode="(" horiz-adv-x="540" 
d="M246 508q0 -542 286 -879l-110 -80q-340 419 -340 943t344 970l113 -84q-293 -328 -293 -870z" />
    <glyph glyph-name="parenright" unicode=")" horiz-adv-x="540" 
d="M459 483q0 -342 -142 -614q-100 -199 -200 -320l-113 82q154 187 222 421t69 446q0 212 -74 452q-69 242 -221 430l115 82q344 -438 344 -979z" />
    <glyph glyph-name="asterisk" unicode="*" horiz-adv-x="833" 
d="M362 1423h107v-204l197 63l41 -121l-197 -63l119 -160l-92 -68l-123 168l-119 -168l-90 66l119 164l-197 63l43 119l192 -63v204z" />
    <glyph glyph-name="plus" unicode="+" horiz-adv-x="1216" 
d="M668 543v-443h-131v443h-435v141h435v444h131v-444h446v-141h-446z" />
    <glyph glyph-name="comma" unicode="," horiz-adv-x="329" 
d="M119 188h164l-109 -376h-121z" />
    <glyph glyph-name="hyphen" unicode="-" horiz-adv-x="874" 
d="M721 299h-567v141h567v-141z" />
    <glyph glyph-name="period" unicode="." horiz-adv-x="335" 
d="M90 0v188h189v-188h-189z" />
    <glyph glyph-name="slash" unicode="/" horiz-adv-x="1292" 
d="M1149 1288l-1043 -1734l-106 73l1036 1737z" />
    <glyph glyph-name="zero" unicode="0" horiz-adv-x="1067" 
d="M254 682q0 -294 43 -412q70 -174 240 -174t221 131q41 97 48 197t7 222t-1 156t-5 97q-5 63 -27 157t-69 140q-68 72 -176 72q-93 -6 -147 -42q-106 -70 -128 -321l-6 -110v-113zM102 685q0 255 43 407t135 225q92 72 255 76q256 0 346 -203q84 -174 84 -519
q1 -345 -95 -522t-335 -178q-207 0 -316 140q-45 61 -74 157q-43 162 -43 417z" />
    <glyph glyph-name="one" unicode="1" horiz-adv-x="610" 
d="M397 1364v-1364h-141v1141l-195 -183v152l256 254h80z" />
    <glyph glyph-name="two" unicode="2" horiz-adv-x="849" 
d="M389 1391q183 -1 283 -105t100 -240t-86 -290q-86 -152 -254 -353l-229 -272h553l-60 -131h-766l281 334q217 256 313 408t96 271q0 120 -65 183q-67 64 -191 64t-255 -80l-60 102q158 109 340 109z" />
    <glyph glyph-name="three" unicode="3" horiz-adv-x="913" 
d="M376 1391q179 0 278 -85q100 -86 100 -210t-65 -206t-173 -118v-2q137 -25 228 -124t92 -230q0 -209 -144 -327t-375 -118q-133 0 -272 49v136q141 -54 293 -54t249 79t97 216t-95 219t-280 80h-45v131h35q149 1 227 59t78 160t-66 157q-67 56 -192 56t-258 -61l-55 107
q164 86 343 86z" />
    <glyph glyph-name="four" unicode="4" horiz-adv-x="980" 
d="M629 358v672l-445 -672h445zM770 358h139l-26 -131h-113v-227h-141v227h-621v95l688 1042h74v-1006z" />
    <glyph glyph-name="five" unicode="5" horiz-adv-x="915" 
d="M844 442q0 -205 -146 -338t-366 -133q-150 0 -279 49v134q100 -52 266 -52q167 0 271 90t104 244q0 152 -120 244t-322 92h-150l193 592h549l-41 -135h-424l-105 -334q268 -2 419 -125t151 -328z" />
    <glyph glyph-name="six" unicode="6" horiz-adv-x="1013" 
d="M225 379q0 -123 77 -200t205 -77t205 79q76 79 76 196t-75 198q-74 87 -205 87t-207 -80t-76 -203zM940 397q0 -168 -117 -297t-308 -129t-316 119t-125 287t57 305t186 307l287 375h187l-482 -623l4 -6q94 57 222 58q173 0 289 -114t116 -282z" />
    <glyph glyph-name="seven" unicode="7" horiz-adv-x="862" 
d="M666 1233h-623l61 131h789l-696 -1364h-160z" />
    <glyph glyph-name="eight" unicode="8" horiz-adv-x="1091" 
d="M770 1030q0 102 -56 167t-166 65t-165 -72t-55 -167t58 -161t160 -66t164 66q60 66 60 168zM825 384q0 126 -74 204q-75 78 -203 78t-205 -79t-77 -204t74 -203t205 -78t206 78q74 78 74 204zM176 1036q0 144 104 250t277 106q172 0 267 -106q95 -108 96 -233
q0 -215 -211 -308l2 -2q127 -43 197 -141t69 -223q0 -160 -119 -285q-120 -123 -312 -123t-312 120q-120 119 -119 267q0 148 71 244q72 96 199 141q-209 88 -209 293z" />
    <glyph glyph-name="nine" unicode="9" horiz-adv-x="1013" 
d="M788 974q0 122 -76 205t-205 83q-128 0 -205 -79t-77 -198t78 -205t209 -86t204 79q72 79 72 201zM496 1393q190 0 317 -121t127 -296t-52 -299t-183 -300l-293 -377h-191l490 623l-2 2q-98 -61 -217 -62q-188 0 -304 121q-114 125 -114 290t116 292t306 127z" />
    <glyph glyph-name="colon" unicode=":" horiz-adv-x="491" 
d="M168 481v189h188v-189h-188zM168 0v188h188v-188h-188z" />
    <glyph glyph-name="semicolon" unicode=";" horiz-adv-x="333" 
d="M119 188h164l-109 -376h-121zM94 481v189h189v-189h-189z" />
    <glyph glyph-name="less" unicode="&#x3c;" horiz-adv-x="1155" 
d="M1053 156l-992 458l992 461v-139l-682 -324l682 -315v-141z" />
    <glyph glyph-name="equal" unicode="=" horiz-adv-x="1220" 
d="M1118 741h-1016v142h1016v-142zM1118 358h-1016v142h1016v-142z" />
    <glyph glyph-name="greater" unicode="&#x3e;" horiz-adv-x="1155" 
d="M102 1075l992 -459l-992 -460v139l682 323l-682 316v141z" />
    <glyph glyph-name="question" unicode="?" horiz-adv-x="581" 
d="M460 1329q82 -66 81 -184q0 -118 -187 -296q-27 -26 -45 -46q-61 -76 -61 -120t30 -90t115 -128l-92 -100q-205 178 -205 303q0 63 32 115t118 139l67 69q76 88 76 154q0 109 -176 108q-53 0 -172 -10l29 135q92 16 161 17q147 0 229 -66zM147 0v188h189v-188h-189z" />
    <glyph glyph-name="at" unicode="@" horiz-adv-x="2027" 
d="M1522 -23q-172 0 -215 154v-2q-145 -152 -353 -152q-208 -1 -330 133q-120 134 -120 323t131 331t334 141q203 0 340 -157l8 137h131v-682q0 -97 112 -97t174 125q60 125 58 275t-50 273q-103 263 -371 373q-142 58 -316 58q-344 0 -581 -224q-236 -224 -236 -546
t236 -552q236 -228 581 -228q121 0 219 16v-131q-70 -16 -247 -16t-358 74q-355 145 -498 492q-69 165 -69 339q0 387 271 647q272 260 684 260q215 1 389 -73t276 -199q203 -246 203 -542t-178 -464q-96 -86 -225 -86zM984 782q-151 0 -245 -98t-94 -249t92 -243t242 -92
t246 98t96 243q0 144 -94 241q-92 100 -243 100z" />
    <glyph glyph-name="A" unicode="A" horiz-adv-x="1361" 
d="M674 1063l-254 -549h514zM993 375h-641l-174 -375h-162l666 1393l664 -1393h-179z" />
    <glyph glyph-name="B" unicode="B" horiz-adv-x="1208" 
d="M365 635v-494h253q324 0 324 250q0 115 -80 179t-237 65h-260zM365 1223v-447h231q276 0 276 230q0 217 -286 217h-221zM647 0h-434v1364h360q463 0 463 -338q0 -104 -61 -185t-168 -114v-6q135 -25 217 -116t82 -212q0 -181 -120 -287t-339 -106z" />
    <glyph glyph-name="C" unicode="C" horiz-adv-x="1351" 
d="M831 -31q-174 -1 -317 61t-233 167q-179 217 -179 501t208 491q208 206 526 206q262 0 430 -138l-86 -108q-137 104 -367 104q-231 -1 -389 -159t-158 -411t158 -415q162 -158 414 -157q204 -1 366 118l82 -102q-186 -158 -455 -158z" />
    <glyph glyph-name="D" unicode="D" horiz-adv-x="1441" 
d="M596 1225h-231v-1086h231q580 0 580 541q0 260 -148 402t-432 143zM592 0h-379v1364h385q391 0 573 -213q168 -193 168 -485t-184 -478q-184 -188 -563 -188z" />
    <glyph glyph-name="E" unicode="E" horiz-adv-x="1142" 
d="M365 770h593v-141h-593v-488h659v-141h-811v1364h805v-141h-653v-453z" />
    <glyph glyph-name="F" unicode="F" horiz-adv-x="1052" 
d="M365 731h593v-141h-593v-590h-152v1364h811v-141h-659v-492z" />
    <glyph glyph-name="G" unicode="G" horiz-adv-x="1599" 
d="M266 676q0 -242 155 -404t413 -161q211 0 352 125t166 325h-508l57 141h617q-14 -221 -101 -391q-172 -342 -581 -342q-332 0 -533 209t-201 499t209 504t525 214q280 0 505 -205l-106 -88q-163 152 -407 152t-403 -169q-159 -167 -159 -409z" />
    <glyph glyph-name="H" unicode="H" horiz-adv-x="1550" 
d="M1186 670h-821v-670h-152v1364h152v-553h821v553h151v-1364h-151v670z" />
    <glyph glyph-name="I" unicode="I" horiz-adv-x="577" 
d="M365 0h-152v1364h152v-1364z" />
    <glyph glyph-name="J" unicode="J" horiz-adv-x="702" 
d="M158 111q116 1 150 75t34 250v928h152v-893q0 -283 -70 -391q-68 -111 -248 -111q-65 0 -139 23v135q82 -16 121 -16z" />
    <glyph glyph-name="K" unicode="K" horiz-adv-x="1253" 
d="M365 0h-152v1364h152v-748l593 748h187l-455 -573l531 -791h-187l-444 668l-225 -277v-391z" />
    <glyph glyph-name="L" unicode="L" horiz-adv-x="1052" 
d="M1024 141v-141h-811v1364h152v-1223h659z" />
    <glyph glyph-name="M" unicode="M" horiz-adv-x="1841" 
d="M483 1393l441 -1020l458 1020l381 -1393h-157l-260 969l-431 -957l-413 957l-277 -969h-147z" />
    <glyph glyph-name="N" unicode="N" horiz-adv-x="1507" 
d="M354 0h-141v1393l940 -1004v975h141v-1350l-940 1008v-1022z" />
    <glyph glyph-name="O" unicode="O" horiz-adv-x="1660" 
d="M831 1253q-249 1 -407 -167t-158 -405t158 -405q160 -166 408 -166t405 164q158 164 158 406q-1 147 -63 276t-195 213t-306 84zM102 689q0 298 205 502t527 204q170 1 313 -63t231 -171q180 -211 180 -489t-200 -490q-202 -213 -526 -213t-527 211t-203 509z" />
    <glyph glyph-name="P" unicode="P" horiz-adv-x="1136" 
d="M365 1223v-547h219q344 0 344 270q0 276 -334 277h-229zM606 535h-241v-535h-152v1364h416q213 0 338 -114t125 -301t-123 -301t-363 -113z" />
    <glyph glyph-name="Q" unicode="Q" horiz-adv-x="1660" 
d="M1395 679q0 241 -157 407q-156 166 -404 167q-248 0 -407 -168q-159 -167 -159 -405t158 -406q160 -164 407 -164t405 164t157 405zM1182 18q-38 0 -136 -24t-240 -25t-286 61t-235 169q-181 215 -181 499t207 490q207 207 521 207t521 -203q206 -203 206 -506
q0 -356 -273 -549v-6q66 10 134 10t165 -16l-59 -160q-156 53 -344 53z" />
    <glyph glyph-name="R" unicode="R" horiz-adv-x="1236" 
d="M598 1223h-233v-496h231q162 0 247 69t85 189q0 238 -330 238zM485 586h-120v-586h-152v1364h444q187 0 311 -102t124 -275q0 -334 -408 -397l512 -590h-205l-506 588v-2z" />
    <glyph glyph-name="S" unicode="S" horiz-adv-x="1007" 
d="M471 111q147 0 212 59t65 158q0 137 -259 309l-127 86q-88 61 -145 119q-72 80 -72 214t107 234q106 104 276 104t301 -79l-55 -117q-127 55 -231 55t-170 -57t-66 -139t82 -160l283 -201q240 -172 239 -370q0 -162 -125 -259t-305 -98q-227 1 -385 105l68 123
q160 -86 307 -86z" />
    <glyph glyph-name="T" unicode="T" horiz-adv-x="976" 
d="M565 0h-151v1223h-353v141h854v-141h-350v-1223z" />
    <glyph glyph-name="U" unicode="U" horiz-adv-x="1521" 
d="M1165 1364h152v-770q0 -305 -143 -465t-417 -160t-413 160t-139 465v770h151v-780q0 -473 408 -473q401 0 401 473v780z" />
    <glyph glyph-name="V" unicode="V" horiz-adv-x="1306" 
d="M672 315l452 1049h166l-620 -1391l-654 1391h170z" />
    <glyph glyph-name="W" unicode="W" horiz-adv-x="2095" 
d="M1499 -27l-446 1035l-414 -1035l-623 1391h172l447 -1018l416 1045l452 -1053l418 1026h158z" />
    <glyph glyph-name="X" unicode="X" horiz-adv-x="1150" 
d="M932 0l-363 584l-366 -584h-170l450 713l-411 651h182l321 -512l318 512h178l-414 -639l457 -725h-182z" />
    <glyph glyph-name="Y" unicode="Y" horiz-adv-x="1179" 
d="M514 0v449l-494 915h173l403 -756l395 756h168l-491 -918v-446h-154z" />
    <glyph glyph-name="Z" unicode="Z" horiz-adv-x="1136" 
d="M1047 0h-1006l774 1223h-729l39 141h962l-774 -1223h783z" />
    <glyph glyph-name="bracketleft" unicode="[" horiz-adv-x="614" 
d="M213 -451v1815h379v-123h-248v-1569h248v-123h-379z" />
    <glyph glyph-name="backslash" unicode="\" horiz-adv-x="1265" 
d="M246 1352l1020 -1737l-113 -61l-1024 1734z" />
    <glyph glyph-name="bracketright" unicode="]" horiz-adv-x="614" 
d="M20 1364h381v-1815h-381v123h250v1569h-250v123z" />
    <glyph glyph-name="asciicircum" unicode="^" horiz-adv-x="684" 
d="M526 915l-186 232l-190 -232h-160l360 433l344 -433h-168z" />
    <glyph glyph-name="underscore" unicode="_" horiz-adv-x="1208" 
d="M1208 -471h-1208v141h1208v-141z" />
    <glyph glyph-name="grave" unicode="`" horiz-adv-x="468" 
d="M242 1024l127 -250h-95l-247 250h215z" />
    <glyph glyph-name="a" unicode="a" horiz-adv-x="741" 
d="M188 201q0 -100 144 -101q78 0 131 27t53 73t-47 74t-122 27t-117 -27t-42 -73zM370 672q132 0 202 -54t71 -149v-469h-129v47q-90 -63 -210 -63t-188 57t-69 155q0 98 74 155q73 59 191 59t202 -48v33q0 84 -33 122t-129 38t-194 -37l-23 109q103 45 235 45z" />
    <glyph glyph-name="b" unicode="b" horiz-adv-x="894" 
d="M240 328q0 -92 64 -157t164 -65q98 0 158 60t60 162q0 100 -59 160t-159 60t-164 -64t-64 -156zM242 0h-131v1364h131v-809q104 117 255 117t241 -96t89 -242q0 -144 -91 -247q-90 -103 -248 -103t-246 118v-102z" />
    <glyph glyph-name="c" unicode="c" horiz-adv-x="737" 
d="M427 -16q-165 0 -263 102q-96 102 -96 238t92 241q94 106 270 107q141 0 258 -99l-78 -96q-90 72 -184 72q-94 1 -156 -61t-61 -160q0 -98 64 -160q65 -62 166 -62t182 68l73 -90q-102 -100 -267 -100z" />
    <glyph glyph-name="d" unicode="d" horiz-adv-x="894" 
d="M209 326q0 -94 61 -156q62 -62 158 -64q96 0 162 64t66 156q0 94 -66 158q-64 64 -159 65q-95 -1 -159 -65t-63 -158zM784 1364v-1364h-131v102q-94 -118 -251 -118t-246 98q-88 100 -88 238t95 245t251 107t239 -117v809h131z" />
    <glyph glyph-name="e" unicode="e" horiz-adv-x="827" 
d="M426 549q-168 0 -219 -141h409q-12 63 -63 102t-127 39zM446 -16q-184 0 -282 102q-96 102 -96 248t104 241q110 97 258 97t238 -97q92 -94 92 -223q0 -23 -6 -53h-557q7 -82 73 -137t164 -56q135 1 221 91l90 -74q-115 -139 -299 -139z" />
    <glyph glyph-name="f" unicode="f" horiz-adv-x="440" 
d="M285 0h-133v532h-134v123h134v447q0 114 60 188t157 74h61v-123h-24q-66 0 -94 -42t-27 -132v-412h137v-123h-137v-532z" />
    <glyph glyph-name="g" unicode="g" horiz-adv-x="894" 
d="M211 328q0 -98 59 -160q60 -62 158 -62t163 62t65 158t-65 159t-163 63t-158 -60q-60 -62 -59 -160zM653 655h131v-573q0 -225 -78 -314t-294 -90q-145 0 -310 56l33 123q141 -55 273 -55t189 52q56 54 56 191v57q-94 -118 -251 -118q-158 0 -246 100t-88 240t95 244
t249 104t241 -117v100z" />
    <glyph glyph-name="h" unicode="h" horiz-adv-x="798" 
d="M242 0h-131v1364h131v-817q29 57 88 91t127 34q244 0 243 -264v-408h-133v371q0 90 -32 134q-33 44 -113 44t-130 -53t-50 -129v-367z" />
    <glyph glyph-name="i" unicode="i" horiz-adv-x="352" 
d="M242 977v-152h-131v152h131zM242 0h-131v655h131v-655z" />
    <glyph glyph-name="j" unicode="j" horiz-adv-x="350" 
d="M240 977v-152h-131v152h131zM109 -18v673h131v-712q0 -92 -58 -174q-55 -84 -170 -84h-14v122h8q103 1 103 175z" />
    <glyph glyph-name="k" unicode="k" horiz-adv-x="718" 
d="M244 0h-133v1364h133v-1004l272 295h156l-250 -264l297 -391h-158l-233 307l-84 -82v-225z" />
    <glyph glyph-name="l" unicode="l" horiz-adv-x="352" 
d="M242 0h-131v1364h131v-1364z" />
    <glyph glyph-name="m" unicode="m" horiz-adv-x="1181" 
d="M244 0h-133v655h133v-108q31 51 86 88t112 37q150 0 199 -142q63 141 211 142q231 0 231 -264v-408h-133v389q0 160 -125 160q-73 0 -117 -53t-44 -129v-367h-134v387q0 162 -120 162q-70 0 -118 -52t-48 -132v-365z" />
    <glyph glyph-name="n" unicode="n" horiz-adv-x="798" 
d="M242 0h-131v655h131v-108q31 55 88 90t125 35q246 0 245 -264v-408h-133v371q0 94 -31 136q-32 42 -112 42t-131 -53t-51 -129v-367z" />
    <glyph glyph-name="o" unicode="o" horiz-adv-x="864" 
d="M209 330q0 -100 62 -162q63 -62 163 -62t160 62t61 160q0 100 -62 160q-61 60 -161 60t-162 -58q-62 -60 -61 -160zM426 -16q-168 0 -263 102t-95 241q0 140 98 242q98 103 263 103t265 -99q102 -95 102 -249t-100 -247q-102 -93 -270 -93z" />
    <glyph glyph-name="p" unicode="p" horiz-adv-x="894" 
d="M240 328q0 -94 64 -158q65 -64 165 -64q101 0 159 62t58 150q0 90 -58 160t-158 71t-166 -63q-64 -64 -64 -158zM242 -315h-131v970h131v-100q94 117 248 117t245 -109q92 -109 92 -243t-89 -234q-88 -102 -246 -102t-250 118v-417z" />
    <glyph glyph-name="q" unicode="q" horiz-adv-x="894" 
d="M209 327q0 -99 58 -159q59 -60 159 -59q100 0 165 60q65 61 65 157t-65 159t-163 63t-158 -60q-60 -62 -61 -161zM784 -315h-131v417q-101 -118 -249 -118t-244 96q-92 96 -92 240t95 248t251 104t239 -117v100h131v-970z" />
    <glyph glyph-name="r" unicode="r" horiz-adv-x="503" 
d="M244 0h-133v655h133v-147q27 72 84 118t127 46h37v-142h-70q-80 0 -129 -56t-49 -144v-330z" />
    <glyph glyph-name="s" unicode="s" horiz-adv-x="600" 
d="M319 549q-78 0 -77 -53q0 -47 112 -99l29 -14q80 -45 118 -90t38 -124t-65 -131q-64 -52 -182 -52t-231 77l62 107q92 -61 183 -61t91 75q0 47 -133 119l-37 19q-67 38 -97 80t-30 111t62 114t162 45q98 0 188 -49l-49 -105q-92 31 -144 31z" />
    <glyph glyph-name="t" unicode="t" horiz-adv-x="446" 
d="M289 0h-131v532h-135v123h135v371l131 72v-443h135v-123h-135v-532z" />
    <glyph glyph-name="u" unicode="u" horiz-adv-x="800" 
d="M559 655h131v-655h-131v113q-27 -51 -83 -90t-134 -39q-117 0 -180 68t-64 196v407h133v-372q0 -95 34 -135t112 -40t130 53q52 52 52 132v362z" />
    <glyph glyph-name="v" unicode="v" horiz-adv-x="688" 
d="M354 164q25 86 49 151l136 340h143l-285 -655h-96l-295 655h150l149 -342q20 -43 49 -149z" />
    <glyph glyph-name="w" unicode="w" horiz-adv-x="1064" 
d="M754 168l26 94l133 393h146l-248 -655h-109l-167 498l-168 -498h-109l-252 655h148l135 -393l14 -53q4 -20 12 -41q4 12 4 14l21 78l127 395h135l125 -393q12 -37 15 -55t12 -39z" />
    <glyph glyph-name="x" unicode="x" horiz-adv-x="667" 
d="M500 0l-174 242l-174 -242h-146l240 332l-232 323h160l160 -227l84 113q45 59 82 114h151l-237 -317l248 -338h-162z" />
    <glyph glyph-name="y" unicode="y" horiz-adv-x="704" 
d="M410 315l145 340h143l-438 -970h-137l164 360l-281 610h150l149 -342l35 -104l14 -45q31 88 56 151z" />
    <glyph glyph-name="z" unicode="z" horiz-adv-x="628" 
d="M623 655l-377 -532h375l-54 -123h-561l379 532h-319l49 123h508z" />
    <glyph glyph-name="braceleft" unicode="{" horiz-adv-x="688" 
d="M391 119v-275q0 -82 53 -127t136 -45h47v-123h-88q-279 0 -279 295v238q0 303 -199 324v124q105 12 151 90t46 232v221q0 291 277 291h88v-123h-48q-82 0 -133 -43t-51 -125v-268q0 -281 -186 -338v-2q186 -82 186 -346z" />
    <glyph glyph-name="bar" unicode="|" horiz-adv-x="417" 
d="M274 -471h-131v2177h131v-2177z" />
    <glyph glyph-name="braceright" unicode="}" horiz-adv-x="688" 
d="M297 817v252q0 82 -53 127t-135 45h-48v123h89q279 0 278 -295v-215q0 -305 199 -326v-125q-105 -12 -151 -88t-46 -231v-244q0 -291 -276 -291h-88v123h47q82 0 133 43t51 125v291q0 281 186 338v2q-100 41 -143 120t-43 226z" />
    <glyph glyph-name="asciitilde" unicode="~" horiz-adv-x="1282" 
d="M375 817q72 0 252 -72q209 -88 300 -88t181 78l72 -106q-113 -119 -235 -119t-353 98q-150 62 -228 62t-190 -101l-74 105q137 143 275 143z" />
    <glyph glyph-name="uni00A0" unicode="&#xa0;" horiz-adv-x="477" 
 />
    <glyph glyph-name="exclamdown" unicode="&#xa1;" horiz-adv-x="475" 
d="M322 653v-190h-177v190h177zM188 242h101l45 -953h-193z" />
    <glyph glyph-name="cent" unicode="&#xa2;" horiz-adv-x="878" 
d="M561 -250h-117v230q-196 24 -310 148t-114 305t118 311t306 153v229h117v-229q147 -2 287 -109l-74 -96q-108 88 -258 88t-245 -95t-95 -239t95 -244q95 -102 252 -102t263 80l76 -92q-113 -88 -301 -111v-227z" />
    <glyph glyph-name="sterling" unicode="&#xa3;" horiz-adv-x="937" 
d="M546 1253q-114 -1 -185 -71q-136 -135 -9 -477h314v-130h-279q12 -68 12 -133q0 -156 -139 -284l6 -8q130 53 264 -7q74 -33 123 -32q88 0 166 79l80 -94q-137 -127 -252 -127q-47 0 -140 36t-149 36q-104 0 -194 -55l-94 168q102 76 149 140t47 138q0 72 -30 143h-197
v130h145q-57 154 -57 280q0 188 118 299t314 111q146 0 279 -80l-64 -121q-114 59 -228 59z" />
    <glyph glyph-name="currency" unicode="&#xa4;" horiz-adv-x="1241" 
d="M307 694q0 -137 89 -226q90 -89 220 -89t223 83t93 216t-86 231q-82 101 -221 101t-229 -90t-89 -226zM158 692q0 150 92 279l-191 188l88 90l191 -188q119 96 283 96t282 -96l189 188l90 -90l-193 -190q94 -125 94 -275t-92 -274l191 -191l-90 -88l-191 189l-29 -23l2 4
q-121 -80 -265 -80t-271 97l-188 -187l-87 88l187 189q-92 124 -92 274z" />
    <glyph glyph-name="yen" unicode="&#xa5;" horiz-adv-x="1087" 
d="M467 526h-356v129h295l-377 709h172l346 -655l342 655h170l-385 -709h307v-129h-363v-143h363v-129h-363v-254h-151v254h-356v129h356v143z" />
    <glyph glyph-name="brokenbar" unicode="&#xa6;" horiz-adv-x="417" 
d="M143 449h131v-920h-131v920zM143 1706h131v-920h-131v920z" />
    <glyph glyph-name="section" unicode="&#xa7;" horiz-adv-x="1107" 
d="M514 -412q-160 0 -285 76l66 117q107 -61 207 -61t149 42q49 43 49 121t-49 152t-135 115q-154 8 -250 105t-96 237t77 236q77 97 197 122q-82 49 -129 123t-47 149q0 139 94 220t244 81t289 -77l-64 -115q-103 61 -207 61t-154 -48t-50 -122q0 -156 178 -264
q154 -12 247 -114t93 -238q0 -256 -262 -348q84 -47 130 -125t46 -156q0 -131 -89 -210t-249 -79zM322 501q0 -101 65 -162q66 -60 168 -60t167 62q64 63 64 161t-64 163q-65 65 -169 65t-168 -64q-63 -64 -63 -165z" />
    <glyph glyph-name="dieresis" unicode="&#xa8;" horiz-adv-x="507" 
d="M193 977v-150h-144v150h144zM465 977v-150h-143v150h143z" />
    <glyph glyph-name="copyright" unicode="&#xa9;" horiz-adv-x="1853" 
d="M270 418q0 -270 192 -463t462 -193t465 195t195 462t-195 462t-463 195t-462 -194t-194 -464zM927 1202q325 0 554 -228t229 -555t-229 -555t-555 -228t-554 228q-228 230 -229 557q0 327 228 554q231 227 556 227zM942 -23q-198 0 -321 127q-121 128 -121 298t117 305
q118 135 341 135q172 0 310 -117l-84 -98q-100 86 -232 86t-217 -88q-84 -90 -84 -222q0 -133 91 -215q90 -82 222 -82t234 78l82 -86q-140 -121 -338 -121z" />
    <glyph glyph-name="ordfeminine" unicode="&#xaa;" horiz-adv-x="874" 
d="M272 881q0 -49 47 -76t125 -27t130 26t52 74t-47 74q-48 26 -128 27q-179 0 -179 -98zM490 1364q122 0 192 -53t70 -146v-485h-127v51q-87 -69 -213 -69t-202 60t-77 158q0 98 79 156q79 60 201 60t212 -66v45q0 94 -34 133q-35 39 -133 39t-194 -33l-20 107
q125 43 246 43z" />
    <glyph glyph-name="guillemotleft" unicode="&#xab;" horiz-adv-x="751" 
d="M285 68l-189 258l189 260h145l-186 -260l186 -258h-145zM547 68l-191 258l191 260h143l-184 -260l184 -258h-143z" />
    <glyph glyph-name="logicalnot" unicode="&#xac;" horiz-adv-x="1495" 
d="M1073 600h-987v141h1110v-454h-123v313z" />
    <glyph glyph-name="uni00AD" unicode="&#xad;" horiz-adv-x="874" 
d="M721 299h-567v141h567v-141z" />
    <glyph glyph-name="registered" unicode="&#xae;" horiz-adv-x="1253" 
d="M625 1559q231 0 394 -163t163 -392q0 -228 -163 -392t-394 -164t-394 162q-159 164 -159 394t159 393q163 162 394 162zM625 565q178 0 308 130t130 307q0 178 -130 308t-308 130q-177 0 -307 -129t-130 -306t129 -311q130 -129 308 -129zM639 1186h-102v-150h102
q41 0 67 22t25 58q0 70 -92 70zM537 940v-201h-121v551h264q78 0 125 -46t47 -114q0 -119 -121 -172l187 -219h-158l-172 201h-51z" />
    <glyph glyph-name="overscore" unicode="&#xaf;" horiz-adv-x="516" 
d="M469 852h-424v123h424v-123z" />
    <glyph glyph-name="degree" unicode="&#xb0;" horiz-adv-x="669" 
d="M170 1055q0 -72 48 -122t119 -50t117 48t46 121t-45 125t-118 52t-120 -51t-47 -123zM41 1056q0 122 86 208t208 86t208 -86t86 -208t-86 -208t-208 -86t-208 86t-86 208z" />
    <glyph glyph-name="plusminus" unicode="&#xb1;" horiz-adv-x="1220" 
d="M668 655v-348h-131v348h-435v142h435v422h131v-422h446v-142h-446zM1118 80h-1016v141h1016v-141z" />
    <glyph glyph-name="twosuperior" unicode="&#xb2;" horiz-adv-x="800" 
d="M520 1169q0 154 -192 154q-104 0 -187 -57l-45 94q121 80 257 80t217 -66t81 -168q1 -102 -61 -194t-195 -215h273l-58 -117h-518q233 193 331 299q97 106 97 190z" />
    <glyph glyph-name="threesuperior" unicode="&#xb3;" horiz-adv-x="815" 
d="M358 1440q133 0 217 -51t84 -150q0 -66 -44 -116t-113 -66v-6q82 -11 132 -59t50 -113q0 -105 -95 -161t-255 -56q-96 0 -195 32v113q109 -29 193 -29q221 0 221 99q0 111 -234 110h-22v109h22q106 0 158 33q51 34 51 85t-51 80t-143 29t-162 -31l-41 99q94 49 227 49z
" />
    <glyph glyph-name="acute" unicode="&#xb4;" horiz-adv-x="524" 
d="M250 774h-100l137 256h213z" />
    <glyph glyph-name="mu" unicode="&#xb5;" horiz-adv-x="1071" 
d="M924 0h-142v129q-139 -154 -290 -154q-106 0 -203 56v-490h-142v1354h144v-520q0 -133 57 -206t162 -73q156 0 272 174v625h142v-895z" />
    <glyph glyph-name="mu" unicode="&#x3bc;" horiz-adv-x="1071" 
d="M924 0h-142v129q-139 -154 -290 -154q-106 0 -203 56v-490h-142v1354h144v-520q0 -133 57 -206t162 -73q156 0 272 174v625h142v-895z" />
    <glyph glyph-name="paragraph" unicode="&#xb6;" horiz-adv-x="1001" 
d="M858 -412h-123v1848h123v-1848zM575 -412h-122v1147q-166 0 -267 111q-100 114 -100 244t92 238t250 108h147v-1848z" />
    <glyph glyph-name="middot" unicode="&#xb7;" horiz-adv-x="468" 
d="M127 627v229h215v-229h-215z" />
    <glyph glyph-name="cedilla" unicode="&#xb8;" horiz-adv-x="329" 
d="M102 8h105v-69q113 -17 113 -118q0 -52 -64 -92q-63 -40 -156 -40q-27 0 -55 6l8 96q33 -4 47 -4q78 0 78 37t-76 37v147z" />
    <glyph glyph-name="onesuperior" unicode="&#xb9;" horiz-adv-x="555" 
d="M371 1434v-754h-117v575l-152 -143v131l193 191h76z" />
    <glyph glyph-name="ordmasculine" unicode="&#xba;" horiz-adv-x="884" 
d="M246 1012q0 -106 51 -170t146 -64t143 62t49 170q0 106 -47 173q-46 67 -144 67t-148 -66t-50 -172zM766 1013q0 -149 -92 -250t-237 -101t-233 96t-89 244q0 148 86 258q87 106 245 106t238 -104q82 -100 82 -249z" />
    <glyph glyph-name="guillemotright" unicode="&#xbb;" horiz-adv-x="751" 
d="M467 586l188 -260l-188 -258h-145l186 258l-186 260h145zM207 586l188 -260l-188 -258h-146l187 258l-187 260h146z" />
    <glyph glyph-name="onequarter" unicode="&#xbc;" horiz-adv-x="1531" 
d="M371 1434v-754h-117v575l-152 -143v131l193 191h76zM1372 1327l-1153 -1323l-88 86l1145 1325zM1227 240v307l-262 -307h262zM1343 240h91l-31 -97h-60v-143h-116v143h-408v74l459 539h65v-516z" />
    <glyph glyph-name="onehalf" unicode="&#xbd;" horiz-adv-x="1681" 
d="M1239 643q-104 0 -186 -57l-45 94q119 80 256 80t218 -66t81 -168q1 -102 -61 -194t-195 -215h272l-57 -117h-518q233 193 330 299t98 190q0 154 -193 154zM371 1434v-754h-117v575l-152 -143v131l193 191h76zM1374 1327l-1149 -1323l-90 86l1143 1325z" />
    <glyph glyph-name="threequarters" unicode="&#xbe;" horiz-adv-x="1712" 
d="M1335 240v307l-262 -307h262zM1452 240h90l-31 -97h-59v-143h-117v143h-407v74l458 539h66v-516zM358 1440q133 0 217 -51t84 -150q0 -66 -44 -116t-113 -66v-6q82 -11 132 -59t50 -113q0 -105 -95 -161t-255 -56q-96 0 -195 32v113q109 -29 193 -29q221 0 221 99
q0 111 -234 110h-22v109h22q106 0 158 33q51 34 51 85t-51 80t-143 29t-162 -31l-41 99q94 49 227 49zM1526 1327l-1151 -1323l-92 86l1147 1325z" />
    <glyph glyph-name="questiondown" unicode="&#xbf;" horiz-adv-x="499" 
d="M268 -741q-147 -1 -228 65t-81 180t156 271q59 59 73 75q64 68 64 132t-146 206l93 101q205 -178 204 -303q1 -64 -31 -116t-118 -138l-68 -70q-76 -88 -75 -154q0 -109 176 -108q53 0 172 10l-29 -135q-92 -16 -162 -16zM352 653v-188h-188v188h188z" />
    <glyph glyph-name="Agrave" unicode="&#xc0;" horiz-adv-x="1361" 
d="M565 1776l164 -258h-104l-287 258h227zM674 1063l-254 -549h514zM993 375h-641l-174 -375h-162l666 1393l664 -1393h-179z" />
    <glyph glyph-name="Aacute" unicode="&#xc1;" horiz-adv-x="1361" 
d="M760 1518h-107l166 258h228zM674 1063l-254 -549h514zM993 375h-641l-174 -375h-162l666 1393l664 -1393h-179z" />
    <glyph glyph-name="Acircumflex" unicode="&#xc2;" horiz-adv-x="1361" 
d="M850 1495l-162 180l-162 -180h-116l202 301h148l205 -301h-115zM674 1063l-254 -549h514zM993 375h-641l-174 -375h-162l666 1393l664 -1393h-179z" />
    <glyph glyph-name="Atilde" unicode="&#xc3;" horiz-adv-x="1361" 
d="M548 1724q66 0 142 -38q84 -37 127 -37t80 55l12 20l111 -41q-20 -77 -72 -125t-108 -48q-57 0 -142 36q-80 39 -137 39t-100 -88l-107 37q18 82 74 136q54 54 120 54zM674 1063l-254 -549h514zM993 375h-641l-174 -375h-162l666 1393l664 -1393h-179z" />
    <glyph glyph-name="Adieresis" unicode="&#xc4;" horiz-adv-x="1361" 
d="M926 1739v-178h-162v178h162zM602 1739v-178h-164v178h164zM674 1063l-254 -549h514zM993 375h-641l-174 -375h-162l666 1393l664 -1393h-179z" />
    <glyph glyph-name="Aring" unicode="&#xc5;" horiz-adv-x="1361" 
d="M614 1687q0 -30 20 -52q20 -21 51 -21q29 0 51 22t22 51q0 31 -22 53t-50 22t-50 -23q-22 -22 -22 -52zM496 1688q-4 59 30 106q75 101 197 81q59 -9 106 -61t47 -126t-56 -134t-136 -59q-80 3 -134 57t-54 136zM674 1063l-254 -549h514zM993 375h-641l-174 -375h-162
l666 1393l664 -1393h-179z" />
    <glyph glyph-name="AE" unicode="&#xc6;" horiz-adv-x="1853" 
d="M926 485v738l-467 -738h467zM1729 1364v-141h-652v-453h590v-141h-590v-488h658v-141h-809v344h-551v2l-215 -346h-160l854 1364h875z" />
    <glyph glyph-name="Ccedilla" unicode="&#xc7;" horiz-adv-x="1351" 
d="M1026 -254q0 -86 -89 -135t-208 -49q-2 0 -63 4l8 108q14 -2 60 -2t83 16t37 52q0 55 -104 65v168q-158 14 -284 81t-204 167q-160 205 -160 463q0 299 208 505t526 206q262 0 430 -138l-86 -108q-137 104 -367 104q-231 -1 -389 -159t-158 -411t158 -415
q162 -158 414 -157q204 -1 366 118l82 -102q-174 -145 -420 -156v-77q74 -8 117 -48t43 -100z" />
    <glyph glyph-name="Egrave" unicode="&#xc8;" horiz-adv-x="1142" 
d="M528 1776l164 -258h-104l-287 258h227zM365 770h593v-141h-593v-488h659v-141h-811v1364h805v-141h-653v-453z" />
    <glyph glyph-name="Eacute" unicode="&#xc9;" horiz-adv-x="1142" 
d="M604 1518h-106l166 258h227zM365 770h593v-141h-593v-488h659v-141h-811v1364h805v-141h-653v-453z" />
    <glyph glyph-name="Ecircumflex" unicode="&#xca;" horiz-adv-x="1142" 
d="M776 1495l-162 180l-161 -180h-117l203 301h147l205 -301h-115zM365 770h593v-141h-593v-488h659v-141h-811v1364h805v-141h-653v-453z" />
    <glyph glyph-name="Edieresis" unicode="&#xcb;" horiz-adv-x="1142" 
d="M858 1739v-178h-162v178h162zM535 1739v-178h-164v178h164zM365 770h593v-141h-593v-488h659v-141h-811v1364h805v-141h-653v-453z" />
    <glyph glyph-name="Igrave" unicode="&#xcc;" horiz-adv-x="577" 
d="M365 0h-152v1364h152v-1364zM162 1776l164 -258h-105l-287 258h228z" />
    <glyph glyph-name="Iacute" unicode="&#xcd;" horiz-adv-x="577" 
d="M354 1518h-106l166 258h227zM365 0h-152v1364h152v-1364z" />
    <glyph glyph-name="Icircumflex" unicode="&#xce;" horiz-adv-x="577" 
d="M365 0h-152v1364h152v-1364zM446 1495l-161 180l-162 -180h-117l203 301h147l205 -301h-115z" />
    <glyph glyph-name="Idieresis" unicode="&#xcf;" horiz-adv-x="577" 
d="M365 0h-152v1364h152v-1364zM532 1739v-178h-161v178h161zM209 1739v-178h-164v178h164z" />
    <glyph glyph-name="Eth" unicode="&#xd0;" horiz-adv-x="1445" 
d="M610 1223h-239v-465h305v-142h-305v-475h245q272 1 418 137t146 397t-146 405t-424 143zM612 0h-393v616h-172v142h172v606h393q356 0 544 -189t187 -493q0 -304 -180 -492q-180 -190 -551 -190z" />
    <glyph glyph-name="Ntilde" unicode="&#xd1;" horiz-adv-x="1507" 
d="M354 0h-141v1393l940 -1004v975h141v-1350l-940 1008v-1022zM612 1724q66 0 145 -38t123 -37q44 0 81 55l12 20l110 -41q-20 -77 -71 -125q-52 -48 -110 -48t-139 37q-81 38 -139 38t-100 -88l-106 37q18 82 74 136q54 54 120 54z" />
    <glyph glyph-name="Ograve" unicode="&#xd2;" horiz-adv-x="1660" 
d="M696 1776l164 -258h-104l-287 258h227zM831 1253q-249 1 -407 -167t-158 -405t158 -405q160 -166 408 -166t405 164q158 164 158 406q-1 147 -63 276t-195 213t-306 84zM102 689q0 298 205 502t527 204q170 1 313 -63t231 -171q180 -211 180 -489t-200 -490
q-202 -213 -526 -213t-527 211t-203 509z" />
    <glyph glyph-name="Oacute" unicode="&#xd3;" horiz-adv-x="1660" 
d="M895 1518h-107l166 258h228zM831 1253q-249 1 -407 -167t-158 -405t158 -405q160 -166 408 -166t405 164q158 164 158 406q-1 147 -63 276t-195 213t-306 84zM102 689q0 298 205 502t527 204q170 1 313 -63t231 -171q180 -211 180 -489t-200 -490q-202 -213 -526 -213
t-527 211t-203 509z" />
    <glyph glyph-name="Ocircumflex" unicode="&#xd4;" horiz-adv-x="1660" 
d="M985 1495l-162 180l-161 -180h-117l203 301h147l205 -301h-115zM831 1253q-249 1 -407 -167t-158 -405t158 -405q160 -166 408 -166t405 164q158 164 158 406q-1 147 -63 276t-195 213t-306 84zM102 689q0 298 205 502t527 204q170 1 313 -63t231 -171q180 -211 180 -489
t-200 -490q-202 -213 -526 -213t-527 211t-203 509z" />
    <glyph glyph-name="Otilde" unicode="&#xd5;" horiz-adv-x="1660" 
d="M688 1724q66 0 141 -38q84 -37 129 -37t78 55l13 20l110 -41q-19 -77 -71 -125t-109 -48t-139 37q-82 38 -140 38t-100 -88l-106 37q18 82 73 136t121 54zM831 1253q-249 1 -407 -167t-158 -405t158 -405q160 -166 408 -166t405 164q158 164 158 406q-1 147 -63 276
t-195 213t-306 84zM102 689q0 298 205 502t527 204q170 1 313 -63t231 -171q180 -211 180 -489t-200 -490q-202 -213 -526 -213t-527 211t-203 509z" />
    <glyph glyph-name="Odieresis" unicode="&#xd6;" horiz-adv-x="1660" 
d="M1200 1677v-178h-162v178h162zM629 1677v-178h-164v178h164zM831 1253q-249 1 -407 -167t-158 -405t158 -405q160 -166 408 -166t405 164q158 164 158 406q-1 147 -63 276t-195 213t-306 84zM102 689q0 298 205 502t527 204q170 1 313 -63t231 -171q180 -211 180 -489
t-200 -490q-202 -213 -526 -213t-527 211t-203 509z" />
    <glyph glyph-name="multiply" unicode="&#xd7;" horiz-adv-x="1249" 
d="M729 526l418 -417l-105 -105l-415 420l-422 -420l-103 105l418 417l-418 420l103 103l422 -420l415 420l105 -103z" />
    <glyph glyph-name="Oslash" unicode="&#xd8;" horiz-adv-x="1662" 
d="M266 696q0 -221 111 -364l823 792q-90 72 -168 100t-198 27q-248 0 -408 -167t-160 -388zM845 113q238 1 396 163t158 404q0 188 -117 356l-825 -794q150 -129 388 -129zM104 682q0 293 200 503t532 210q283 0 477 -166l160 160l88 -86l-164 -162q164 -211 164 -459
q0 -295 -207 -504t-518 -209q-275 0 -486 168l-164 -157l-84 90l166 153q-164 207 -164 459z" />
    <glyph glyph-name="Ugrave" unicode="&#xd9;" horiz-adv-x="1521" 
d="M627 1776l164 -258h-105l-287 258h228zM1165 1364h152v-770q0 -305 -143 -465t-417 -160t-413 160t-139 465v770h151v-780q0 -473 408 -473q401 0 401 473v780z" />
    <glyph glyph-name="Uacute" unicode="&#xda;" horiz-adv-x="1521" 
d="M805 1518h-107l166 258h228zM1165 1364h152v-770q0 -305 -143 -465t-417 -160t-413 160t-139 465v770h151v-780q0 -473 408 -473q401 0 401 473v780z" />
    <glyph glyph-name="Ucircumflex" unicode="&#xdb;" horiz-adv-x="1521" 
d="M918 1495l-162 180l-162 -180h-117l203 301h147l205 -301h-114zM1165 1364h152v-770q0 -305 -143 -465t-417 -160t-413 160t-139 465v770h151v-780q0 -473 408 -473q401 0 401 473v780z" />
    <glyph glyph-name="Udieresis" unicode="&#xdc;" horiz-adv-x="1521" 
d="M999 1739v-178h-161v178h161zM676 1739v-178h-164v178h164zM1165 1364h152v-770q0 -305 -143 -465t-417 -160t-413 160t-139 465v770h151v-780q0 -473 408 -473q401 0 401 473v780z" />
    <glyph glyph-name="Yacute" unicode="&#xdd;" horiz-adv-x="1179" 
d="M637 1518h-107l166 258h228zM514 0v449l-494 915h173l403 -756l395 756h168l-491 -918v-446h-154z" />
    <glyph glyph-name="Thorn" unicode="&#xde;" horiz-adv-x="1136" 
d="M606 289h-241v-289h-152v1364h152v-221h264q211 0 337 -120q126 -119 126 -309t-124 -308t-362 -117zM365 1001v-571h219q174 0 259 74t85 210t-84 212t-250 75h-229z" />
    <glyph glyph-name="germandbls" unicode="&#xdf;" horiz-adv-x="847" 
d="M285 0h-135v748q0 154 68 242t205 87q136 -1 213 -69t77 -189q0 -82 -42 -143t-108 -74v-4q91 -14 145 -97t54 -217t-75 -218q-75 -86 -191 -86q-78 0 -131 43l43 108q28 -20 82 -20t92 51q36 52 36 160t-50 165t-160 50v110q84 0 124 40t39 126q0 133 -153 133
q-61 0 -97 -51t-36 -135v-760z" />
    <glyph glyph-name="agrave" unicode="&#xe0;" horiz-adv-x="741" 
d="M350 1024l127 -250h-94l-248 250h215zM188 201q0 -100 144 -101q78 0 131 27t53 73t-47 74t-122 27t-117 -27t-42 -73zM370 672q132 0 202 -54t71 -149v-469h-129v47q-90 -63 -210 -63t-188 57t-69 155q0 98 74 155q73 59 191 59t202 -48v33q0 84 -33 122t-129 38
t-194 -37l-23 109q103 45 235 45z" />
    <glyph glyph-name="aacute" unicode="&#xe1;" horiz-adv-x="741" 
d="M414 774h-101l138 256h213zM188 201q0 -100 144 -101q78 0 131 27t53 73t-47 74t-122 27t-117 -27t-42 -73zM370 672q132 0 202 -54t71 -149v-469h-129v47q-90 -63 -210 -63t-188 57t-69 155q0 98 74 155q73 59 191 59t202 -48v33q0 84 -33 122t-129 38t-194 -37l-23 109
q103 45 235 45z" />
    <glyph glyph-name="acircumflex" unicode="&#xe2;" horiz-adv-x="741" 
d="M502 784l-119 129l-123 -129h-104l161 246h123l166 -246h-104zM188 201q0 -100 144 -101q78 0 131 27t53 73t-47 74t-122 27t-117 -27t-42 -73zM370 672q132 0 202 -54t71 -149v-469h-129v47q-90 -63 -210 -63t-188 57t-69 155q0 98 74 155q73 59 191 59t202 -48v33
q0 84 -33 122t-129 38t-194 -37l-23 109q103 45 235 45z" />
    <glyph glyph-name="atilde" unicode="&#xe3;" horiz-adv-x="741" 
d="M293 989q43 0 99 -28q56 -27 93 -27t60 53l96 -37q-14 -55 -55 -92t-91 -37t-102 27q-68 27 -90 26q-53 0 -76 -61l-98 31q53 145 164 145zM188 201q0 -100 144 -101q78 0 131 27t53 73t-47 74t-122 27t-117 -27t-42 -73zM370 672q132 0 202 -54t71 -149v-469h-129v47
q-90 -63 -210 -63t-188 57t-69 155q0 98 74 155q73 59 191 59t202 -48v33q0 84 -33 122t-129 38t-194 -37l-23 109q103 45 235 45z" />
    <glyph glyph-name="adieresis" unicode="&#xe4;" horiz-adv-x="741" 
d="M340 977v-150h-143v150h143zM612 977v-150h-143v150h143zM188 201q0 -100 144 -101q78 0 131 27t53 73t-47 74t-122 27t-117 -27t-42 -73zM370 672q132 0 202 -54t71 -149v-469h-129v47q-90 -63 -210 -63t-188 57t-69 155q0 98 74 155q73 59 191 59t202 -48v33
q0 84 -33 122t-129 38t-194 -37l-23 109q103 45 235 45z" />
    <glyph glyph-name="aring" unicode="&#xe5;" horiz-adv-x="741" 
d="M430 897q0 33 -24 45q-25 12 -50 -1t-24 -44q0 -47 49 -47t49 47zM381 754q-55 0 -102 41q-68 61 -29 156t131 91q61 0 102 -42t42 -101t-44 -102t-100 -43zM188 201q0 -100 144 -101q78 0 131 27t53 73t-47 74t-122 27t-117 -27t-42 -73zM370 672q132 0 202 -54t71 -149
v-469h-129v47q-90 -63 -210 -63t-188 57t-69 155q0 98 74 155q73 59 191 59t202 -48v33q0 84 -33 122t-129 38t-194 -37l-23 109q103 45 235 45z" />
    <glyph glyph-name="ae" unicode="&#xe6;" horiz-adv-x="1265" 
d="M868 549q-172 0 -223 -141h410q-13 63 -63 102t-124 39zM346 301q-156 0 -156 -99t144 -100q78 0 131 27t53 72t-48 73t-124 27zM866 672q152 0 242 -96t90 -224q0 -25 -4 -53h-557q4 -82 72 -136t165 -54q141 0 222 88l88 -74q-114 -139 -300 -139t-288 114v-2
q-74 -59 -140 -86q-66 -26 -168 -26t-172 57t-69 155q0 98 75 155q74 59 190 59t204 -48v33q0 82 -34 121t-131 39t-191 -37l-23 109q98 45 256 45t221 -94q100 94 252 94z" />
    <glyph glyph-name="ccedilla" unicode="&#xe7;" horiz-adv-x="737" 
d="M354 -311q-27 0 -55 6l8 96q33 -4 47 -4q78 0 78 37t-76 37v129q-133 22 -211 116q-77 94 -77 224t92 235q94 106 270 107q141 0 258 -99l-78 -96q-90 72 -184 72q-94 1 -156 -61t-61 -160q0 -98 64 -160q65 -62 167 -62t181 68l73 -90q-96 -88 -233 -98v-47
q113 -17 113 -118q0 -52 -64 -92q-63 -40 -156 -40z" />
    <glyph glyph-name="egrave" unicode="&#xe8;" horiz-adv-x="827" 
d="M352 1024l127 -250h-94l-248 250h215zM426 549q-168 0 -219 -141h409q-12 63 -63 102t-127 39zM446 -16q-184 0 -282 102q-96 102 -96 248t104 241q110 97 258 97t238 -97q92 -94 92 -223q0 -23 -6 -53h-557q7 -82 73 -137t164 -56q135 1 221 91l90 -74
q-115 -139 -299 -139z" />
    <glyph glyph-name="eacute" unicode="&#xe9;" horiz-adv-x="827" 
d="M455 774h-101l138 256h213zM426 549q-168 0 -219 -141h409q-12 63 -63 102t-127 39zM446 -16q-184 0 -282 102q-96 102 -96 248t104 241q110 97 258 97t238 -97q92 -94 92 -223q0 -23 -6 -53h-557q7 -82 73 -137t164 -56q135 1 221 91l90 -74q-115 -139 -299 -139z" />
    <glyph glyph-name="ecircumflex" unicode="&#xea;" horiz-adv-x="827" 
d="M543 784l-119 129l-123 -129h-104l161 246h123l166 -246h-104zM426 549q-168 0 -219 -141h409q-12 63 -63 102t-127 39zM446 -16q-184 0 -282 102q-96 102 -96 248t104 241q110 97 258 97t238 -97q92 -94 92 -223q0 -23 -6 -53h-557q7 -82 73 -137t164 -56q135 1 221 91
l90 -74q-115 -139 -299 -139z" />
    <glyph glyph-name="edieresis" unicode="&#xeb;" horiz-adv-x="827" 
d="M358 977v-150h-143v150h143zM631 977v-150h-144v150h144zM426 549q-168 0 -219 -141h409q-12 63 -63 102t-127 39zM446 -16q-184 0 -282 102q-96 102 -96 248t104 241q110 97 258 97t238 -97q92 -94 92 -223q0 -23 -6 -53h-557q7 -82 73 -137t164 -56q135 1 221 91
l90 -74q-115 -139 -299 -139z" />
    <glyph glyph-name="igrave" unicode="&#xec;" horiz-adv-x="352" 
d="M240 0h-131v655h131v-655zM92 1024l127 -250h-94l-248 250h215z" />
    <glyph glyph-name="iacute" unicode="&#xed;" horiz-adv-x="352" 
d="M215 774h-100l137 256h213zM240 0h-131v655h131v-655z" />
    <glyph glyph-name="icircumflex" unicode="&#xee;" horiz-adv-x="352" 
d="M240 0h-131v655h131v-655zM293 784l-119 129l-123 -129h-104l162 246h122l166 -246h-104z" />
    <glyph glyph-name="idieresis" unicode="&#xef;" horiz-adv-x="352" 
d="M240 0h-131v655h131v-655zM104 977v-150h-143v150h143zM377 977v-150h-144v150h144z" />
    <glyph glyph-name="eth" unicode="&#xf0;" horiz-adv-x="864" 
d="M440 549q-106 -1 -168 -61t-63 -156q0 -96 59 -160q58 -64 160 -63q102 -1 167 71t62 172q0 28 -6 58q-72 139 -211 139zM788 406q0 -190 -102 -306t-260 -116t-258 94t-100 242t98 249q98 102 264 103q102 0 193 -80q-61 133 -172 213l-177 -117l-69 90l151 92
q-29 20 -174 84l111 90q86 -20 188 -90l133 93l72 -86l-123 -82q225 -201 225 -473z" />
    <glyph glyph-name="ntilde" unicode="&#xf1;" horiz-adv-x="798" 
d="M313 989q43 0 99 -28q56 -27 94 -27q37 0 59 53l97 -37q-14 -55 -56 -92t-91 -37q-50 0 -101 27q-68 27 -90 26q-53 0 -76 -61l-98 31q53 145 163 145zM242 0h-131v655h131v-108q31 55 88 90t125 35q246 0 245 -264v-408h-133v371q0 94 -31 136q-32 42 -112 42t-131 -53
t-51 -129v-367z" />
    <glyph glyph-name="ograve" unicode="&#xf2;" horiz-adv-x="864" 
d="M356 1024l127 -250h-94l-248 250h215zM209 330q0 -100 62 -162q63 -62 163 -62t160 62t61 160q0 100 -62 160q-61 60 -161 60t-162 -58q-62 -60 -61 -160zM426 -16q-168 0 -263 102t-95 241q0 140 98 242q98 103 263 103t265 -99q102 -95 102 -249t-100 -247
q-102 -93 -270 -93z" />
    <glyph glyph-name="oacute" unicode="&#xf3;" horiz-adv-x="864" 
d="M471 774h-100l137 256h213zM209 330q0 -100 62 -162q63 -62 163 -62t160 62t61 160q0 100 -62 160q-61 60 -161 60t-162 -58q-62 -60 -61 -160zM426 -16q-168 0 -263 102t-95 241q0 140 98 242q98 103 263 103t265 -99q102 -95 102 -249t-100 -247q-102 -93 -270 -93z
" />
    <glyph glyph-name="ocircumflex" unicode="&#xf4;" horiz-adv-x="864" 
d="M553 784l-119 129l-123 -129h-104l162 246h123l165 -246h-104zM209 330q0 -100 62 -162q63 -62 163 -62t160 62t61 160q0 100 -62 160q-61 60 -161 60t-162 -58q-62 -60 -61 -160zM426 -16q-168 0 -263 102t-95 241q0 140 98 242q98 103 263 103t265 -99
q102 -95 102 -249t-100 -247q-102 -93 -270 -93z" />
    <glyph glyph-name="otilde" unicode="&#xf5;" horiz-adv-x="864" 
d="M340 989q41 0 98 -28q57 -27 94 -27t60 53l96 -37q-14 -55 -55 -92t-91 -37t-102 27q-68 27 -90 26q-56 0 -76 -61l-98 31q53 145 164 145zM209 330q0 -100 62 -162q63 -62 163 -62t160 62t61 160q0 100 -62 160q-61 60 -161 60t-162 -58q-62 -60 -61 -160zM426 -16
q-168 0 -263 102t-95 241q0 140 98 242q98 103 263 103t265 -99q102 -95 102 -249t-100 -247q-102 -93 -270 -93z" />
    <glyph glyph-name="odieresis" unicode="&#xf6;" horiz-adv-x="864" 
d="M369 977v-150h-144v150h144zM641 977v-150h-143v150h143zM209 330q0 -100 62 -162q63 -62 163 -62t160 62t61 160q0 100 -62 160q-61 60 -161 60t-162 -58q-62 -60 -61 -160zM426 -16q-168 0 -263 102t-95 241q0 140 98 242q98 103 263 103t265 -99q102 -95 102 -249
t-100 -247q-102 -93 -270 -93z" />
    <glyph glyph-name="divide" unicode="&#xf7;" horiz-adv-x="1216" 
d="M1114 506h-1012v141h1012v-141zM604 311q56 0 100 -45t44 -107q0 -63 -42 -107t-102 -44t-101 44q-42 44 -42 107q0 62 43 107t100 45zM461 982q0 62 42 106t101 45q60 0 102 -44q42 -45 42 -107t-42 -106t-102 -44t-101 44q-42 44 -42 106z" />
    <glyph glyph-name="oslash" unicode="&#xf8;" horiz-adv-x="864" 
d="M438 549q-104 1 -170 -63t-65 -158q-1 -56 24 -105l326 297q-53 29 -115 29zM439 106q93 0 158 64t65 145q0 82 -29 123l-328 -301q41 -31 134 -31zM68 342q0 129 94 229q94 101 250 101t239 -62l56 52l77 -84l-51 -48q63 -78 63 -216t-96 -234q-98 -96 -250 -96t-239 61
l-70 -61l-78 86l66 59q-61 84 -61 213z" />
    <glyph glyph-name="ugrave" unicode="&#xf9;" horiz-adv-x="800" 
d="M328 1024l127 -250h-95l-247 250h215zM559 655h131v-655h-131v113q-27 -51 -83 -90t-134 -39q-117 0 -180 68t-64 196v407h133v-372q0 -95 34 -135t112 -40t130 53q52 52 52 132v362z" />
    <glyph glyph-name="uacute" unicode="&#xfa;" horiz-adv-x="800" 
d="M434 774h-100l137 256h213zM559 655h131v-655h-131v113q-27 -51 -83 -90t-134 -39q-117 0 -180 68t-64 196v407h133v-372q0 -95 34 -135t112 -40t130 53q52 52 52 132v362z" />
    <glyph glyph-name="ucircumflex" unicode="&#xfb;" horiz-adv-x="800" 
d="M520 784l-119 129l-122 -129h-105l162 246h123l166 -246h-105zM559 655h131v-655h-131v113q-27 -51 -83 -90t-134 -39q-117 0 -180 68t-64 196v407h133v-372q0 -95 34 -135t112 -40t130 53q52 52 52 132v362z" />
    <glyph glyph-name="udieresis" unicode="&#xfc;" horiz-adv-x="800" 
d="M336 977v-150h-143v150h143zM608 977v-150h-143v150h143zM559 655h131v-655h-131v113q-27 -51 -83 -90t-134 -39q-117 0 -180 68t-64 196v407h133v-372q0 -95 34 -135t112 -40t130 53q52 52 52 132v362z" />
    <glyph glyph-name="yacute" unicode="&#xfd;" horiz-adv-x="704" 
d="M397 774h-100l137 256h213zM410 315l145 340h143l-438 -970h-137l164 360l-281 610h150l149 -342l35 -104l14 -45q31 88 56 151z" />
    <glyph glyph-name="thorn" unicode="&#xfe;" horiz-adv-x="894" 
d="M242 -315h-131v1359h131v-489q90 117 246 117t247 -109q92 -109 92 -243t-89 -234q-89 -102 -246 -102q-70 0 -140 32t-110 86v-417zM240 328q0 -92 64 -156q65 -63 164 -63t159 59q59 58 59 152t-60 162t-158 67t-164 -65q-64 -64 -64 -156z" />
    <glyph glyph-name="ydieresis" unicode="&#xff;" horiz-adv-x="704" 
d="M291 977v-150h-144v150h144zM563 977v-150h-143v150h143zM410 315l145 340h143l-438 -970h-137l164 360l-281 610h150l149 -342l35 -104l14 -45q31 88 56 151z" />
    <glyph glyph-name="Amacron" unicode="&#x100;" horiz-adv-x="1361" 
d="M985 1550h-592v142h592v-142zM674 1063l-254 -549h514zM993 375h-641l-174 -375h-162l666 1393l664 -1393h-179z" />
    <glyph glyph-name="amacron" unicode="&#x101;" horiz-adv-x="741" 
d="M602 852h-424v123h424v-123zM188 201q0 -100 144 -101q78 0 131 27t53 73t-47 74t-122 27t-117 -27t-42 -73zM370 672q132 0 202 -54t71 -149v-469h-129v47q-90 -63 -210 -63t-188 57t-69 155q0 98 74 155q73 59 191 59t202 -48v33q0 84 -33 122t-129 38t-194 -37
l-23 109q103 45 235 45z" />
    <glyph glyph-name="Abreve" unicode="&#x102;" horiz-adv-x="1361" 
d="M682 1495q-104 0 -193 53q-88 53 -131 144l95 71q97 -129 233 -129t236 131l94 -71q-125 -199 -334 -199zM674 1063l-254 -549h514zM993 375h-641l-174 -375h-162l666 1393l664 -1393h-179z" />
    <glyph glyph-name="abreve" unicode="&#x103;" horiz-adv-x="741" 
d="M382 795q-167 0 -237 143l80 63q61 -92 163 -92t169 92l80 -63q-88 -143 -255 -143zM188 201q0 -100 144 -101q78 0 131 27t53 73t-47 74t-122 27t-117 -27t-42 -73zM370 672q132 0 202 -54t71 -149v-469h-129v47q-90 -63 -210 -63t-188 57t-69 155q0 98 74 155
q73 59 191 59t202 -48v33q0 84 -33 122t-129 38t-194 -37l-23 109q103 45 235 45z" />
    <glyph glyph-name="Aogonek" unicode="&#x104;" horiz-adv-x="1361" 
d="M674 1063l-254 -549h514zM1229 -309q47 0 96 12l33 -131q-80 -23 -178 -23q-98 1 -162 49t-64 138q0 131 207 276l-168 363h-641l-174 -375h-162l666 1393l664 -1393h-5l-51 -31q-170 -102 -170 -190t109 -88z" />
    <glyph glyph-name="aogonek" unicode="&#x105;" horiz-adv-x="741" 
d="M571 -315q-178 0 -178 139q0 98 121 176v47q-90 -63 -210 -63t-188 57t-69 155q0 98 74 155q73 59 191 59t202 -48v33q0 84 -33 122t-129 38t-194 -37l-23 109q103 45 235 45t202 -54t71 -149v-469q-45 -27 -76 -67t-30 -76q0 -57 67 -58q43 0 70 15l26 -107v-4
q-45 -18 -129 -18zM188 201q0 -100 144 -101q78 0 131 27t53 73t-47 74t-122 27t-117 -27t-42 -73z" />
    <glyph glyph-name="Cacute" unicode="&#x106;" horiz-adv-x="1351" 
d="M825 1518h-106l166 258h227zM831 -31q-174 -1 -317 61t-233 167q-179 217 -179 501t208 491q208 206 526 206q262 0 430 -138l-86 -108q-137 104 -367 104q-231 -1 -389 -159t-158 -411t158 -415q162 -158 414 -157q204 -1 366 118l82 -102q-186 -158 -455 -158z" />
    <glyph glyph-name="cacute" unicode="&#x107;" horiz-adv-x="737" 
d="M446 774h-100l137 256h213zM427 -16q-165 0 -263 102q-96 102 -96 238t92 241q94 106 270 107q141 0 258 -99l-78 -96q-90 72 -184 72q-94 1 -156 -61t-61 -160q0 -98 64 -160q65 -62 166 -62t182 68l73 -90q-102 -100 -267 -100z" />
    <glyph glyph-name="Ccircumflex" unicode="&#x108;" horiz-adv-x="1351" 
d="M963 1495l-162 180l-162 -180h-117l203 301h147l205 -301h-114zM831 -31q-174 -1 -317 61t-233 167q-179 217 -179 501t208 491q208 206 526 206q262 0 430 -138l-86 -108q-137 104 -367 104q-231 -1 -389 -159t-158 -411t158 -415q162 -158 414 -157q204 -1 366 118
l82 -102q-186 -158 -455 -158z" />
    <glyph glyph-name="ccircumflex" unicode="&#x109;" horiz-adv-x="737" 
d="M543 784l-119 129l-123 -129h-104l161 246h123l166 -246h-104zM427 -16q-165 0 -263 102q-96 102 -96 238t92 241q94 106 270 107q141 0 258 -99l-78 -96q-90 72 -184 72q-94 1 -156 -61t-61 -160q0 -98 64 -160q65 -62 166 -62t182 68l73 -90q-102 -100 -267 -100z" />
    <glyph glyph-name="Cdotaccent" unicode="&#x10a;" horiz-adv-x="1351" 
d="M897 1739v-178h-164v178h164zM831 -31q-174 -1 -317 61t-233 167q-179 217 -179 501t208 491q208 206 526 206q262 0 430 -138l-86 -108q-137 104 -367 104q-231 -1 -389 -159t-158 -411t158 -415q162 -158 414 -157q204 -1 366 118l82 -102q-186 -158 -455 -158z" />
    <glyph glyph-name="cdotaccent" unicode="&#x10b;" horiz-adv-x="737" 
d="M489 989v-160h-151v160h151zM427 -16q-165 0 -263 102q-96 102 -96 238t92 241q94 106 270 107q141 0 258 -99l-78 -96q-90 72 -184 72q-94 1 -156 -61t-61 -160q0 -98 64 -160q65 -62 166 -62t182 68l73 -90q-102 -100 -267 -100z" />
    <glyph glyph-name="Ccaron" unicode="&#x10c;" horiz-adv-x="1351" 
d="M659 1821l162 -181l164 181h113l-205 -303h-148l-200 303h114zM831 -31q-174 -1 -317 61t-233 167q-179 217 -179 501t208 491q208 206 526 206q262 0 430 -138l-86 -108q-137 104 -367 104q-231 -1 -389 -159t-158 -411t158 -415q162 -158 414 -157q204 -1 366 118
l82 -102q-186 -158 -455 -158z" />
    <glyph glyph-name="ccaron" unicode="&#x10d;" horiz-adv-x="737" 
d="M303 1030l123 -131l119 131h104l-166 -246h-123l-161 246h104zM427 -16q-165 0 -263 102q-96 102 -96 238t92 241q94 106 270 107q141 0 258 -99l-78 -96q-90 72 -184 72q-94 1 -156 -61t-61 -160q0 -98 64 -160q65 -62 166 -62t182 68l73 -90q-102 -100 -267 -100z" />
    <glyph glyph-name="Dcaron" unicode="&#x10e;" horiz-adv-x="1441" 
d="M444 1821l162 -181l164 181h113l-205 -303h-148l-200 303h114zM596 1225h-231v-1086h231q580 0 580 541q0 260 -148 402t-432 143zM592 0h-379v1364h385q391 0 573 -213q168 -193 168 -485t-184 -478q-184 -188 -563 -188z" />
    <glyph glyph-name="dcaron" unicode="&#x10f;" horiz-adv-x="1083" 
d="M948 1364h164l-125 -383h-90zM207 326q0 -94 61 -156q62 -62 158 -64q96 0 162 64t66 156q0 94 -66 158q-64 64 -159 65q-95 -1 -159 -65t-63 -158zM782 1364v-1364h-131v102q-94 -118 -252 -118q-157 0 -245 99t-88 237t95 245t252 107t238 -117v809h131z" />
    <glyph glyph-name="Dcroat" unicode="&#x110;" horiz-adv-x="1445" 
d="M610 1223h-239v-465h305v-142h-305v-475h245q272 1 418 137t146 397t-146 405t-424 143zM612 0h-393v616h-172v142h172v606h393q356 0 544 -189t187 -493q0 -304 -180 -492q-180 -190 -551 -190z" />
    <glyph glyph-name="dslash" unicode="&#x111;" horiz-adv-x="897" 
d="M207 326q0 -94 61 -156q60 -62 158 -61q98 0 163 62q65 61 65 155t-64 158t-160 65q-96 -1 -160 -65t-63 -158zM653 797h-252v108h252v459h131v-459h72v-108h-72v-797h-133v102q-98 -118 -254 -118q-155 0 -243 99t-88 237t95 245t251 107t241 -117v242z" />
    <glyph glyph-name="Emacron" unicode="&#x112;" horiz-adv-x="1142" 
d="M911 1550h-592v142h592v-142zM365 770h593v-141h-593v-488h659v-141h-811v1364h805v-141h-653v-453z" />
    <glyph glyph-name="emacron" unicode="&#x113;" horiz-adv-x="827" 
d="M631 852h-424v123h424v-123zM426 549q-168 0 -219 -141h409q-12 63 -63 102t-127 39zM446 -16q-184 0 -282 102q-96 102 -96 248t104 241q110 97 258 97t238 -97q92 -94 92 -223q0 -23 -6 -53h-557q7 -82 73 -137t164 -56q135 1 221 91l90 -74q-115 -139 -299 -139z" />
    <glyph glyph-name="Edotaccent" unicode="&#x116;" horiz-adv-x="1142" 
d="M692 1739v-178h-164v178h164zM365 770h593v-141h-593v-488h659v-141h-811v1364h805v-141h-653v-453z" />
    <glyph glyph-name="edotaccent" unicode="&#x117;" horiz-adv-x="827" 
d="M492 989v-160h-152v160h152zM426 549q-168 0 -219 -141h409q-12 63 -63 102t-127 39zM446 -16q-184 0 -282 102q-96 102 -96 248t104 241q110 97 258 97t238 -97q92 -94 92 -223q0 -23 -6 -53h-557q7 -82 73 -137t164 -56q135 1 221 91l90 -74q-115 -139 -299 -139z" />
    <glyph glyph-name="Eogonek" unicode="&#x118;" horiz-adv-x="1142" 
d="M911 -309q47 0 97 12l32 -131q-80 -23 -178 -23q-98 1 -162 49t-63 138q0 129 190 264h-614v1364h805v-141h-653v-453h593v-141h-593v-488h659v-141l-51 -31q-170 -102 -170 -192q-1 -86 108 -86z" />
    <glyph glyph-name="eogonek" unicode="&#x119;" horiz-adv-x="827" 
d="M426 549q-168 0 -219 -141h409q-12 63 -63 102t-127 39zM455 -315q-177 0 -179 139q0 84 107 164q-145 14 -230 111t-85 239t104 237q110 97 258 97t238 -97q92 -94 92 -223q0 -23 -6 -53h-557q7 -82 73 -137q66 -56 182 -56t203 91l90 -74q-78 -90 -178 -121l-37 -25
q-52 -29 -78 -55t-32 -65q0 -57 67 -58q43 1 70 15l27 -107v-4q-47 -18 -129 -18z" />
    <glyph glyph-name="Ecaron" unicode="&#x11a;" horiz-adv-x="1142" 
d="M453 1821l161 -181l164 181h113l-205 -303h-147l-201 303h115zM365 770h593v-141h-593v-488h659v-141h-811v1364h805v-141h-653v-453z" />
    <glyph glyph-name="ecaron" unicode="&#x11b;" horiz-adv-x="827" 
d="M295 1030l123 -131l119 131h104l-166 -246h-123l-162 246h105zM426 549q-168 0 -219 -141h409q-12 63 -63 102t-127 39zM446 -16q-184 0 -282 102q-96 102 -96 248t104 241q110 97 258 97t238 -97q92 -94 92 -223q0 -23 -6 -53h-557q7 -82 73 -137t164 -56q135 1 221 91
l90 -74q-115 -139 -299 -139z" />
    <glyph glyph-name="Gcircumflex" unicode="&#x11c;" horiz-adv-x="1599" 
d="M965 1495l-162 180l-162 -180h-117l203 301h147l205 -301h-114zM266 676q0 -242 155 -404t413 -161q211 0 352 125t166 325h-508l57 141h617q-14 -221 -101 -391q-172 -342 -581 -342q-332 0 -533 209t-201 499t209 504t525 214q280 0 505 -205l-106 -88
q-163 152 -407 152t-403 -169q-159 -167 -159 -409z" />
    <glyph glyph-name="gcircumflex" unicode="&#x11d;" horiz-adv-x="894" 
d="M557 784l-119 129l-123 -129h-104l162 246h123l166 -246h-105zM211 328q0 -98 59 -160q60 -62 158 -62t163 62t65 158t-65 159t-163 63t-158 -60q-60 -62 -59 -160zM653 655h131v-573q0 -225 -78 -314t-294 -90q-145 0 -310 56l33 123q141 -55 273 -55t189 52
q56 54 56 191v57q-94 -118 -251 -118q-158 0 -246 100t-88 240t95 244t249 104t241 -117v100z" />
    <glyph glyph-name="Gbreve" unicode="&#x11e;" horiz-adv-x="1599" 
d="M801 1495q-104 0 -193 53q-88 53 -131 144l94 71q97 -129 233 -129t236 131l95 -71q-125 -199 -334 -199zM266 676q0 -242 155 -404t413 -161q211 0 352 125t166 325h-508l57 141h617q-14 -221 -101 -391q-172 -342 -581 -342q-332 0 -533 209t-201 499t209 504t525 214
q280 0 505 -205l-106 -88q-163 152 -407 152t-403 -169q-159 -167 -159 -409z" />
    <glyph glyph-name="gbreve" unicode="&#x11f;" horiz-adv-x="894" 
d="M421 795q-167 0 -237 143l80 63q60 -92 162 -92t170 92l80 -63q-88 -143 -255 -143zM211 328q0 -98 59 -160q60 -62 158 -62t163 62t65 158t-65 159t-163 63t-158 -60q-60 -62 -59 -160zM653 655h131v-573q0 -225 -78 -314t-294 -90q-145 0 -310 56l33 123
q141 -55 273 -55t189 52q56 54 56 191v57q-94 -118 -251 -118q-158 0 -246 100t-88 240t95 244t249 104t241 -117v100z" />
    <glyph glyph-name="Gdotaccent" unicode="&#x120;" horiz-adv-x="1599" 
d="M881 1739v-178h-164v178h164zM266 676q0 -242 155 -404t413 -161q211 0 352 125t166 325h-508l57 141h617q-14 -221 -101 -391q-172 -342 -581 -342q-332 0 -533 209t-201 499t209 504t525 214q280 0 505 -205l-106 -88q-163 152 -407 152t-403 -169q-159 -167 -159 -409
z" />
    <glyph glyph-name="gdotaccent" unicode="&#x121;" horiz-adv-x="894" 
d="M508 989v-160h-152v160h152zM211 328q0 -98 59 -160q60 -62 158 -62t163 62t65 158t-65 159t-163 63t-158 -60q-60 -62 -59 -160zM653 655h131v-573q0 -225 -78 -314t-294 -90q-145 0 -310 56l33 123q141 -55 273 -55t189 52q56 54 56 191v57q-94 -118 -251 -118
q-158 0 -246 100t-88 240t95 244t249 104t241 -117v100z" />
    <glyph glyph-name="Gcommaaccent" unicode="&#x122;" horiz-adv-x="1599" 
d="M690 -137h166l-119 -314h-96zM266 676q0 -242 155 -404t413 -161q211 0 352 125t166 325h-508l57 141h617q-14 -221 -101 -391q-172 -342 -581 -342q-332 0 -533 209t-201 499t209 504t525 214q280 0 505 -205l-106 -88q-163 152 -407 152t-403 -169q-159 -167 -159 -409
z" />
    <glyph glyph-name="gcommaaccent" unicode="&#x123;" horiz-adv-x="894" 
d="M504 825h-160l111 254h94zM211 328q0 -98 59 -160q60 -62 158 -62t163 62t65 158t-65 159t-163 63t-158 -60q-60 -62 -59 -160zM653 655h131v-573q0 -225 -78 -314t-294 -90q-145 0 -310 56l33 123q141 -55 273 -55t189 52q56 54 56 191v57q-94 -118 -251 -118
q-158 0 -246 100t-88 240t95 244t249 104t241 -117v100z" />
    <glyph glyph-name="Hcircumflex" unicode="&#x124;" horiz-adv-x="1550" 
d="M930 1495l-162 180l-162 -180h-117l203 301h148l204 -301h-114zM1186 670h-821v-670h-152v1364h152v-553h821v553h151v-1364h-151v670z" />
    <glyph glyph-name="hcircumflex" unicode="&#x125;" horiz-adv-x="798" 
d="M295 1456l-119 129l-123 -129h-104l162 246h122l166 -246h-104zM242 0h-131v1364h131v-817q29 57 88 91t127 34q244 0 243 -264v-408h-133v371q0 90 -32 134q-33 44 -113 44t-130 -53t-50 -129v-367z" />
    <glyph glyph-name="Hbar" unicode="&#x126;" horiz-adv-x="1552" 
d="M1190 813v299h-828v-299h828zM1190 672h-828v-672h-149v1112h-111v123h111v129h149v-129h828v129h149v-129h111v-123h-111v-1112h-149v672z" />
    <glyph glyph-name="hbar" unicode="&#x127;" horiz-adv-x="798" 
d="M240 1364v-459h301v-108h-301v-250q29 57 88 91t127 34q244 0 243 -264v-408h-133v371q0 178 -147 178q-78 0 -128 -53t-50 -129v-367h-131v797h-103v108h103v459h131z" />
    <glyph glyph-name="Imacron" unicode="&#x12a;" horiz-adv-x="577" 
d="M582 1550h-592v142h592v-142zM365 0h-152v1364h152v-1364z" />
    <glyph glyph-name="imacron" unicode="&#x12b;" horiz-adv-x="352" 
d="M385 852h-424v123h424v-123zM240 0h-131v655h131v-655z" />
    <glyph glyph-name="Iogonek" unicode="&#x12e;" horiz-adv-x="577" 
d="M254 -309q47 0 96 12l33 -131q-79 -23 -177 -23q-98 1 -162 49t-64 138q0 139 233 293v1335h152v-1364l-50 -31q-170 -109 -170 -193t109 -85z" />
    <glyph glyph-name="iogonek" unicode="&#x12f;" horiz-adv-x="352" 
d="M242 977v-152h-131v152h131zM129 -315q-178 0 -178 139q0 96 160 199v632h131v-655h-4l-33 -23q-51 -29 -78 -55t-33 -65q0 -57 68 -58q42 1 69 15l27 -107v-4q-45 -18 -129 -18z" />
    <glyph glyph-name="Idot" unicode="&#x130;" horiz-adv-x="577" 
d="M373 1739v-178h-164v178h164zM365 0h-152v1364h152v-1364z" />
    <glyph glyph-name="dotlessi" unicode="&#x131;" horiz-adv-x="352" 
d="M240 0h-131v655h131v-655z" />
    <glyph glyph-name="Jcircumflex" unicode="&#x134;" horiz-adv-x="702" 
d="M578 1495l-162 180l-162 -180h-117l203 301h147l205 -301h-114zM158 111q116 1 150 75t34 250v928h152v-893q0 -283 -70 -391q-68 -111 -248 -111q-65 0 -139 23v135q82 -16 121 -16z" />
    <glyph glyph-name="jcircumflex" unicode="&#x135;" horiz-adv-x="350" 
d="M289 784l-119 129l-123 -129h-104l161 246h123l166 -246h-104zM109 -92v747h131v-723q0 -248 -193 -247h-31v137q53 -2 73 18t20 68z" />
    <glyph glyph-name="Kcommaaccent" unicode="&#x136;" horiz-adv-x="1253" 
d="M594 -137h166l-119 -314h-96zM365 0h-152v1364h152v-748l593 748h187l-455 -573l531 -791h-187l-444 668l-225 -277v-391z" />
    <glyph glyph-name="kcommaaccent" unicode="&#x137;" horiz-adv-x="718" 
d="M322 -68h159l-110 -254h-95zM244 0h-133v1364h133v-1004l272 295h156l-250 -264l297 -391h-158l-233 307l-84 -82v-225z" />
    <glyph glyph-name="Lacute" unicode="&#x139;" horiz-adv-x="1052" 
d="M344 1518h-106l165 258h228zM1024 141v-141h-811v1364h152v-1223h659z" />
    <glyph glyph-name="lacute" unicode="&#x13a;" horiz-adv-x="352" 
d="M231 1454h-100l137 256h213zM242 0h-131v1364h131v-1364z" />
    <glyph glyph-name="Lcommaaccent" unicode="&#x13b;" horiz-adv-x="1052" 
d="M537 -137h165l-118 -314h-97zM1024 141v-141h-811v1364h152v-1223h659z" />
    <glyph glyph-name="lcommaaccent" unicode="&#x13c;" horiz-adv-x="352" 
d="M94 -68h160l-111 -254h-94zM242 0h-131v1364h131v-1364z" />
    <glyph glyph-name="Lcaron" unicode="&#x13d;" horiz-adv-x="1038" 
d="M848 1368h178l-145 -498h-121zM1024 141v-141h-811v1364h152v-1223h659z" />
    <glyph glyph-name="lcaron" unicode="&#x13e;" horiz-adv-x="552" 
d="M403 1364h164l-125 -383h-90zM240 0h-131v1364h131v-1364z" />
    <glyph glyph-name="Ldot" unicode="&#x13f;" horiz-adv-x="1052" 
d="M694 627v229h215v-229h-215zM1024 141v-141h-811v1364h152v-1223h659z" />
    <glyph glyph-name="ldot" unicode="&#x140;" horiz-adv-x="684" 
d="M377 627v229h215v-229h-215zM240 0h-131v1364h131v-1364z" />
    <glyph glyph-name="Lslash" unicode="&#x141;" horiz-adv-x="1062" 
d="M369 141h665v-141h-817v602l-201 -115v146l201 115v616h152v-528l313 180v-139l-313 -187v-549z" />
    <glyph glyph-name="lslash" unicode="&#x142;" horiz-adv-x="460" 
d="M295 0h-131v369l-150 -82v147l150 84v846h131v-770l149 86v-143l-149 -88v-449z" />
    <glyph glyph-name="Nacute" unicode="&#x143;" horiz-adv-x="1507" 
d="M737 1518h-106l166 258h227zM354 0h-141v1393l940 -1004v975h141v-1350l-940 1008v-1022z" />
    <glyph glyph-name="nacute" unicode="&#x144;" horiz-adv-x="798" 
d="M455 774h-101l138 256h213zM242 0h-131v655h131v-108q31 55 88 90t125 35q246 0 245 -264v-408h-133v371q0 94 -31 136q-32 42 -112 42t-131 -53t-51 -129v-367z" />
    <glyph glyph-name="Ncommaaccent" unicode="&#x145;" horiz-adv-x="1507" 
d="M670 -137h166l-119 -314h-96zM354 0h-141v1393l940 -1004v975h141v-1350l-940 1008v-1022z" />
    <glyph glyph-name="ncommaaccent" unicode="&#x146;" horiz-adv-x="798" 
d="M336 -68h160l-111 -254h-94zM242 0h-131v655h131v-108q31 55 88 90t125 35q246 0 245 -264v-408h-133v371q0 94 -31 136q-32 42 -112 42t-131 -53t-51 -129v-367z" />
    <glyph glyph-name="Ncaron" unicode="&#x147;" horiz-adv-x="1507" 
d="M586 1821l162 -181l163 181h113l-205 -303h-147l-201 303h115zM354 0h-141v1393l940 -1004v975h141v-1350l-940 1008v-1022z" />
    <glyph glyph-name="ncaron" unicode="&#x148;" horiz-adv-x="798" 
d="M291 1030l123 -131l118 131h105l-166 -246h-123l-162 246h105zM242 0h-131v655h131v-108q31 55 88 90t125 35q246 0 245 -264v-408h-133v371q0 94 -31 136q-32 42 -112 42t-131 -53t-51 -129v-367z" />
    <glyph glyph-name="Omacron" unicode="&#x14c;" horiz-adv-x="1660" 
d="M1120 1550h-592v142h592v-142zM831 1253q-249 1 -407 -167t-158 -405t158 -405q160 -166 408 -166t405 164q158 164 158 406q-1 147 -63 276t-195 213t-306 84zM102 689q0 298 205 502t527 204q170 1 313 -63t231 -171q180 -211 180 -489t-200 -490q-202 -213 -526 -213
t-527 211t-203 509z" />
    <glyph glyph-name="omacron" unicode="&#x14d;" horiz-adv-x="864" 
d="M645 852h-424v123h424v-123zM209 330q0 -100 62 -162q63 -62 163 -62t160 62t61 160q0 100 -62 160q-61 60 -161 60t-162 -58q-62 -60 -61 -160zM426 -16q-168 0 -263 102t-95 241q0 140 98 242q98 103 263 103t265 -99q102 -95 102 -249t-100 -247q-102 -93 -270 -93z
" />
    <glyph glyph-name="Ohungarumlaut" unicode="&#x150;" horiz-adv-x="1660" 
d="M1047 1518h-107l166 258h227zM709 1518h-107l166 258h227zM831 1253q-249 1 -407 -167t-158 -405t158 -405q160 -166 408 -166t405 164q158 164 158 406q-1 147 -63 276t-195 213t-306 84zM102 689q0 298 205 502t527 204q170 1 313 -63t231 -171q180 -211 180 -489
t-200 -490q-202 -213 -526 -213t-527 211t-203 509z" />
    <glyph glyph-name="ohungarumlaut" unicode="&#x151;" horiz-adv-x="864" 
d="M340 774h-82l133 256h201zM578 774h-82l133 256h200zM209 330q0 -100 62 -162q63 -62 163 -62t160 62t61 160q0 100 -62 160q-61 60 -161 60t-162 -58q-62 -60 -61 -160zM426 -16q-168 0 -263 102t-95 241q0 140 98 242q98 103 263 103t265 -99q102 -95 102 -249
t-100 -247q-102 -93 -270 -93z" />
    <glyph glyph-name="OE" unicode="&#x152;" horiz-adv-x="1970" 
d="M264 678q0 -238 158 -402t407 -163q90 -1 213 34v1074q-119 31 -213 30q-253 0 -409 -167q-156 -168 -156 -406zM1847 1227h-653v-457h592v-141h-592v-490h657v-139h-809q-96 -31 -211 -31q-325 0 -527 211t-202 502q0 184 82 342t252 264t395 107q102 0 211 -29h805
v-139z" />
    <glyph glyph-name="oe" unicode="&#x153;" horiz-adv-x="1417" 
d="M211 330q0 -100 62 -160q63 -60 163 -61q100 0 162 60q61 59 61 159t-63 160q-62 60 -162 60t-162 -58q-62 -60 -61 -160zM448 -16q-186 0 -284 100q-96 102 -96 242t98 243q102 103 278 103t285 -133q109 133 276 133t256 -93t89 -219q0 -33 -4 -61h-558q4 -82 73 -136
t169 -54q139 0 219 88l90 -74q-115 -139 -307 -139t-301 135q-97 -135 -283 -135zM1015 549q-77 1 -134 -37t-82 -104h411q-12 61 -65 101t-130 40z" />
    <glyph glyph-name="Racute" unicode="&#x154;" horiz-adv-x="1236" 
d="M612 1518h-106l166 258h227zM598 1223h-233v-496h231q162 0 247 69t85 189q0 238 -330 238zM485 586h-120v-586h-152v1364h444q187 0 311 -102t124 -275q0 -334 -408 -397l512 -590h-205l-506 588v-2z" />
    <glyph glyph-name="racute" unicode="&#x155;" horiz-adv-x="503" 
d="M336 774h-100l137 256h213zM244 0h-133v655h133v-147q27 72 84 118t127 46h37v-142h-70q-80 0 -129 -56t-49 -144v-330z" />
    <glyph glyph-name="Rcommaaccent" unicode="&#x156;" horiz-adv-x="1236" 
d="M557 -137h166l-119 -314h-96zM598 1223h-233v-496h231q162 0 247 69t85 189q0 238 -330 238zM485 586h-120v-586h-152v1364h444q187 0 311 -102t124 -275q0 -334 -408 -397l512 -590h-205l-506 588v-2z" />
    <glyph glyph-name="rcommaaccent" unicode="&#x157;" horiz-adv-x="503" 
d="M96 -68h160l-111 -254h-94zM244 0h-133v655h133v-147q27 72 84 118t127 46h37v-142h-70q-80 0 -129 -56t-49 -144v-330z" />
    <glyph glyph-name="Rcaron" unicode="&#x158;" horiz-adv-x="1236" 
d="M422 1821l162 -181l164 181h112l-205 -303h-147l-201 303h115zM598 1223h-233v-496h231q162 0 247 69t85 189q0 238 -330 238zM485 586h-120v-586h-152v1364h444q187 0 311 -102t124 -275q0 -334 -408 -397l512 -590h-205l-506 588v-2z" />
    <glyph glyph-name="rcaron" unicode="&#x159;" horiz-adv-x="503" 
d="M182 1030l123 -131l119 131h104l-166 -246h-122l-162 246h104zM244 0h-133v655h133v-147q27 72 84 118t127 46h37v-142h-70q-80 0 -129 -56t-49 -144v-330z" />
    <glyph glyph-name="Sacute" unicode="&#x15a;" horiz-adv-x="1007" 
d="M573 1518h-106l166 258h227zM471 111q147 0 212 59t65 158q0 137 -259 309l-127 86q-88 61 -145 119q-72 80 -72 214t107 234q106 104 276 104t301 -79l-55 -117q-127 55 -231 55t-170 -57t-66 -139t82 -160l283 -201q240 -172 239 -370q0 -162 -125 -259t-305 -98
q-227 1 -385 105l68 123q160 -86 307 -86z" />
    <glyph glyph-name="sacute" unicode="&#x15b;" horiz-adv-x="600" 
d="M365 774h-101l137 256h213zM319 549q-78 0 -77 -53q0 -47 112 -99l29 -14q80 -45 118 -90t38 -124t-65 -131q-64 -52 -182 -52t-231 77l62 107q92 -61 183 -61t91 75q0 47 -133 119l-37 19q-67 38 -97 80t-30 111t62 114t162 45q98 0 188 -49l-49 -105q-92 31 -144 31z
" />
    <glyph glyph-name="Scircumflex" unicode="&#x15c;" horiz-adv-x="1007" 
d="M711 1495l-162 180l-162 -180h-117l203 301h148l204 -301h-114zM471 111q147 0 212 59t65 158q0 137 -259 309l-127 86q-88 61 -145 119q-72 80 -72 214t107 234q106 104 276 104t301 -79l-55 -117q-127 55 -231 55t-170 -57t-66 -139t82 -160l283 -201
q240 -172 239 -370q0 -162 -125 -259t-305 -98q-227 1 -385 105l68 123q160 -86 307 -86z" />
    <glyph glyph-name="scircumflex" unicode="&#x15d;" horiz-adv-x="600" 
d="M442 784l-118 129l-123 -129h-105l162 246h123l166 -246h-105zM319 549q-78 0 -77 -53q0 -47 112 -99l29 -14q80 -45 118 -90t38 -124t-65 -131q-64 -52 -182 -52t-231 77l62 107q92 -61 183 -61t91 75q0 47 -133 119l-37 19q-67 38 -97 80t-30 111t62 114t162 45
q98 0 188 -49l-49 -105q-92 31 -144 31z" />
    <glyph glyph-name="Scedilla" unicode="&#x15e;" horiz-adv-x="1007" 
d="M471 111q147 0 212 59t65 158q0 137 -259 309l-127 86q-88 61 -145 119q-72 80 -72 214t107 234q106 104 276 104t301 -79l-55 -117q-127 55 -231 55t-170 -57t-66 -139t82 -160l283 -201q240 -172 239 -370q0 -142 -99 -238t-261 -115v-79q74 -8 117 -48t43 -100
q0 -86 -89 -135t-208 -49q-2 0 -64 4l8 108q14 -2 60 -2t84 16q37 16 37 52q0 55 -105 65v166q-213 17 -338 103l68 123q160 -86 307 -86z" />
    <glyph glyph-name="scedilla" unicode="&#x15f;" horiz-adv-x="600" 
d="M350 -61q113 -17 113 -118q1 -52 -63 -92t-156 -40q-27 0 -56 6l9 96q33 -4 47 -4q78 0 78 37t-76 37v131q-100 12 -185 71l62 107q92 -61 183 -61t91 75q0 47 -133 119l-37 19q-67 38 -97 80t-30 111t62 114t162 45q98 0 188 -49l-49 -105q-92 31 -144 31q-78 0 -77 -53
q0 -47 112 -99l29 -14q80 -45 118 -90t38 -119q1 -74 -51 -125t-138 -61v-49z" />
    <glyph glyph-name="Scaron" unicode="&#x160;" horiz-adv-x="1007" 
d="M365 1821l161 -181l164 181h113l-205 -303h-147l-201 303h115zM471 111q147 0 212 59t65 158q0 137 -259 309l-127 86q-88 61 -145 119q-72 80 -72 214t107 234q106 104 276 104t301 -79l-55 -117q-127 55 -231 55t-170 -57t-66 -139t82 -160l283 -201q240 -172 239 -370
q0 -162 -125 -259t-305 -98q-227 1 -385 105l68 123q160 -86 307 -86z" />
    <glyph glyph-name="scaron" unicode="&#x161;" horiz-adv-x="600" 
d="M195 1030l122 -131l119 131h105l-166 -246h-123l-162 246h105zM319 549q-78 0 -77 -53q0 -47 112 -99l29 -14q80 -45 118 -90t38 -124t-65 -131q-64 -52 -182 -52t-231 77l62 107q92 -61 183 -61t91 75q0 47 -133 119l-37 19q-67 38 -97 80t-30 111t62 114t162 45
q98 0 188 -49l-49 -105q-92 31 -144 31z" />
    <glyph glyph-name="Tcedilla" unicode="&#x162;" horiz-adv-x="976" 
d="M432 0h-18v1223h-353v141h854v-141h-350v-1223h-16v-106q74 -8 117 -48t43 -100q1 -86 -89 -135t-208 -49q-2 0 -64 4l8 108q14 -2 60 -2t84 16q37 16 37 52q0 55 -105 65v195z" />
    <glyph glyph-name="tcedilla" unicode="&#x163;" horiz-adv-x="446" 
d="M276 -61q113 -17 113 -118q0 -52 -63 -92t-156 -40q-27 0 -55 6l8 96q33 -4 47 -4q78 0 78 37t-76 37v139h-14v532h-135v123h135v371l131 72v-443h135v-123h-135v-532h-13v-61z" />
    <glyph glyph-name="Tcaron" unicode="&#x164;" horiz-adv-x="976" 
d="M324 1821l161 -181l164 181h113l-205 -303h-147l-201 303h115zM565 0h-151v1223h-353v141h854v-141h-350v-1223z" />
    <glyph glyph-name="tcaron" unicode="&#x165;" horiz-adv-x="573" 
d="M430 1460h164l-125 -383h-90zM289 0h-131v532h-135v123h135v371l131 72v-443h135v-123h-135v-532z" />
    <glyph glyph-name="Umacron" unicode="&#x16a;" horiz-adv-x="1521" 
d="M1051 1550h-592v142h592v-142zM1165 1364h152v-770q0 -305 -143 -465t-417 -160t-413 160t-139 465v770h151v-780q0 -473 408 -473q401 0 401 473v780z" />
    <glyph glyph-name="umacron" unicode="&#x16b;" horiz-adv-x="800" 
d="M612 852h-424v123h424v-123zM559 655h131v-655h-131v113q-27 -51 -83 -90t-134 -39q-117 0 -180 68t-64 196v407h133v-372q0 -95 34 -135t112 -40t130 53q52 52 52 132v362z" />
    <glyph glyph-name="Ubreve" unicode="&#x16c;" horiz-adv-x="1521" 
d="M752 1495q-104 0 -193 53q-88 53 -131 144l94 71q96 -129 232 -129t237 131l94 -71q-125 -199 -333 -199zM1165 1364h152v-770q0 -305 -143 -465t-417 -160t-413 160t-139 465v770h151v-780q0 -473 408 -473q401 0 401 473v780z" />
    <glyph glyph-name="ubreve" unicode="&#x16d;" horiz-adv-x="800" 
d="M390 795q-167 0 -236 143l79 63q61 -92 163 -92t169 92l80 -63q-88 -143 -255 -143zM559 655h131v-655h-131v113q-27 -51 -83 -90t-134 -39q-117 0 -180 68t-64 196v407h133v-372q0 -95 34 -135t112 -40t130 53q52 52 52 132v362z" />
    <glyph glyph-name="Uring" unicode="&#x16e;" horiz-adv-x="1521" 
d="M1165 1364h152v-770q0 -305 -143 -465t-417 -160t-413 160t-139 465v770h151v-780q0 -473 408 -473q401 0 401 473v780zM682 1687q0 -30 20 -52q20 -21 50 -21t52 22t22 51q0 31 -22 53t-50 22t-50 -23q-22 -22 -22 -52zM944 1688q0 -74 -56 -134t-136 -59q-80 2 -135 56
q-54 55 -54 137q-4 59 31 106q75 101 197 81q59 -9 106 -61t47 -126z" />
    <glyph glyph-name="uring" unicode="&#x16f;" horiz-adv-x="800" 
d="M559 655h131v-655h-131v113q-27 -51 -83 -90t-134 -39q-117 0 -180 68t-64 196v407h133v-372q0 -95 34 -135t112 -40t130 53q52 52 52 132v362zM449 897q0 33 -25 45q-26 12 -50 -1t-24 -44q0 -47 50 -47t49 47zM400 754q-56 0 -103 41q-68 61 -29 156t131 91
q61 0 103 -42t42 -101q1 -59 -44 -102q-44 -43 -100 -43z" />
    <glyph glyph-name="Uhungarumlaut" unicode="&#x170;" horiz-adv-x="1521" 
d="M952 1518h-106l166 258h227zM614 1518h-106l166 258h227zM1165 1364h152v-770q0 -305 -143 -465t-417 -160t-413 160t-139 465v770h151v-780q0 -473 408 -473q401 0 401 473v780z" />
    <glyph glyph-name="uhungarumlaut" unicode="&#x171;" horiz-adv-x="800" 
d="M297 774h-82l133 256h201zM535 774h-82l133 256h200zM559 655h131v-655h-131v113q-27 -51 -83 -90t-134 -39q-117 0 -180 68t-64 196v407h133v-372q0 -95 34 -135t112 -40t130 53q52 52 52 132v362z" />
    <glyph glyph-name="Uogonek" unicode="&#x172;" horiz-adv-x="1521" 
d="M799 -309q47 0 96 12l33 -131q-80 -23 -178 -23q-98 1 -162 49t-64 138q0 119 156 237q-475 45 -475 621v770h151v-780q0 -473 408 -473q401 0 401 473v780h152v-770q0 -272 -115 -429t-330 -188l-12 -8q-170 -102 -170 -190t109 -88z" />
    <glyph glyph-name="uogonek" unicode="&#x173;" horiz-adv-x="800" 
d="M578 -315q-179 0 -179 139q0 96 160 199v90q-27 -51 -83 -90t-134 -39q-117 0 -180 68t-64 196v407h133v-372q0 -95 34 -135t112 -40t130 53q52 52 52 132v362h131v-655h-4l-33 -23q-51 -29 -78 -55t-32 -65q0 -57 67 -58q43 1 70 15l27 -107v-4q-47 -18 -129 -18z" />
    <glyph glyph-name="Ydieresis" unicode="&#x178;" horiz-adv-x="1179" 
d="M829 1739v-178h-161v178h161zM506 1739v-178h-164v178h164zM514 0v449l-494 915h173l403 -756l395 756h168l-491 -918v-446h-154z" />
    <glyph glyph-name="Zacute" unicode="&#x179;" horiz-adv-x="1136" 
d="M555 1518h-106l165 258h228zM1047 0h-1006l774 1223h-729l39 141h962l-774 -1223h783z" />
    <glyph glyph-name="zacute" unicode="&#x17a;" horiz-adv-x="628" 
d="M379 774h-100l137 256h213zM623 655l-377 -532h375l-54 -123h-561l379 532h-319l49 123h508z" />
    <glyph glyph-name="Zdotaccent" unicode="&#x17b;" horiz-adv-x="1136" 
d="M649 1739v-178h-164v178h164zM1047 0h-1006l774 1223h-729l39 141h962l-774 -1223h783z" />
    <glyph glyph-name="zdotaccent" unicode="&#x17c;" horiz-adv-x="628" 
d="M410 989v-160h-152v160h152zM623 655l-377 -532h375l-54 -123h-561l379 532h-319l49 123h508z" />
    <glyph glyph-name="Zcaron" unicode="&#x17d;" horiz-adv-x="1136" 
d="M406 1821l161 -181l164 181h113l-205 -303h-147l-201 303h115zM1047 0h-1006l774 1223h-729l39 141h962l-774 -1223h783z" />
    <glyph glyph-name="zcaron" unicode="&#x17e;" horiz-adv-x="628" 
d="M236 1030l122 -131l119 131h105l-166 -246h-123l-162 246h105zM623 655l-377 -532h375l-54 -123h-561l379 532h-319l49 123h508z" />
    <glyph glyph-name="Schwa" unicode="&#x18f;" horiz-adv-x="1622" 
d="M802 113q216 -1 355 119t193 331h-1078q26 -201 170 -325t360 -125zM794 1395q328 0 527 -211t199 -508t-205 -502t-521 -205t-504 200q-187 200 -188 497v36h1258q-23 234 -167 392t-402 157q-127 0 -244 -52t-199 -140l-110 88q228 248 556 248z" />
    <glyph glyph-name="florin" unicode="&#x192;" horiz-adv-x="761" 
d="M41 -326q100 0 150 76t65 223l80 793h-109l13 129h108l14 119q20 172 80 293q72 147 250 147h62l-13 -127h-20q-182 0 -219 -299l-15 -133h117l-12 -129h-117l-78 -780q-45 -436 -329 -437h-58l10 125h21z" />
    <glyph glyph-name="eturn" unicode="&#x1dd;" horiz-adv-x="827" 
d="M621 248h-410q12 -62 63 -102t127 -40q169 1 220 142zM760 320q0 -148 -107 -242q-103 -94 -253 -94t-242 94q-90 96 -90 225q0 23 6 53h557q-6 82 -73 138t-165 55q-135 0 -221 -90l-90 73q115 140 299 140q183 0 281 -102t98 -250z" />
    <glyph glyph-name="Gcaron" unicode="&#x1e6;" horiz-adv-x="1599" 
d="M653 1821l162 -181l164 181h113l-205 -303h-148l-200 303h114zM266 676q0 -242 155 -404t413 -161q211 0 352 125t166 325h-508l57 141h617q-14 -221 -101 -391q-172 -342 -581 -342q-332 0 -533 209t-201 499t209 504t525 214q280 0 505 -205l-106 -88
q-163 152 -407 152t-403 -169q-159 -167 -159 -409z" />
    <glyph glyph-name="gcaron" unicode="&#x1e7;" horiz-adv-x="894" 
d="M313 1030l123 -131l119 131h104l-165 -246h-123l-162 246h104zM211 328q0 -98 59 -160q60 -62 158 -62t163 62t65 158t-65 159t-163 63t-158 -60q-60 -62 -59 -160zM653 655h131v-573q0 -225 -78 -314t-294 -90q-145 0 -310 56l33 123q141 -55 273 -55t189 52
q56 54 56 191v57q-94 -118 -251 -118q-158 0 -246 100t-88 240t95 244t249 104t241 -117v100z" />
    <glyph glyph-name="Scommaaccent" unicode="&#x218;" horiz-adv-x="1007" 
d="M422 -137h166l-119 -314h-96zM471 111q147 0 212 59t65 158q0 137 -259 309l-127 86q-88 61 -145 119q-72 80 -72 214t107 234q106 104 276 104t301 -79l-55 -117q-127 55 -231 55t-170 -57t-66 -139t82 -160l283 -201q240 -172 239 -370q0 -162 -125 -259t-305 -98
q-227 1 -385 105l68 123q160 -86 307 -86z" />
    <glyph glyph-name="scommaaccent" unicode="&#x219;" horiz-adv-x="600" 
d="M240 -68h159l-110 -254h-94zM319 549q-78 0 -77 -53q0 -47 112 -99l29 -14q80 -45 118 -90t38 -124t-65 -131q-64 -52 -182 -52t-231 77l62 107q92 -61 183 -61t91 75q0 47 -133 119l-37 19q-67 38 -97 80t-30 111t62 114t162 45q98 0 188 -49l-49 -105q-92 31 -144 31z
" />
    <glyph glyph-name="Tcommaaccent" unicode="&#x21a;" horiz-adv-x="976" 
d="M399 -137h166l-119 -314h-96zM565 0h-151v1223h-353v141h854v-141h-350v-1223z" />
    <glyph glyph-name="tcommaaccent" unicode="&#x21b;" horiz-adv-x="446" 
d="M145 -68h160l-110 -254h-95zM289 0h-131v532h-135v123h135v371l131 72v-443h135v-123h-135v-532z" />
    <glyph glyph-name="dotlessj" unicode="&#x237;" horiz-adv-x="350" 
d="M109 -92v747h131v-723q0 -248 -193 -247h-31v137q53 -2 73 18t20 68z" />
    <glyph glyph-name="schwa" unicode="&#x259;" horiz-adv-x="827" 
d="M621 248h-410q12 -62 63 -102t127 -40q169 1 220 142zM760 320q0 -148 -107 -242q-103 -94 -253 -94t-242 94q-90 96 -90 225q0 23 6 53h557q-6 82 -73 138t-165 55q-135 0 -221 -90l-90 73q115 140 299 140q183 0 281 -102t98 -250z" />
    <glyph glyph-name="afii57929" unicode="&#x2bc;" horiz-adv-x="522" 
d="M213 1364h164l-125 -383h-90z" />
    <glyph glyph-name="circumflex" unicode="&#x2c6;" horiz-adv-x="534" 
d="M387 784l-119 129l-123 -129h-104l162 246h123l166 -246h-105z" />
    <glyph glyph-name="caron" unicode="&#x2c7;" horiz-adv-x="534" 
d="M145 1030l123 -131l119 131h105l-166 -246h-123l-162 246h104z" />
    <glyph glyph-name="breve" unicode="&#x2d8;" horiz-adv-x="626" 
d="M302 795q-167 0 -236 143l79 63q61 -92 163 -92t169 92l80 -63q-88 -143 -255 -143z" />
    <glyph glyph-name="dotaccent" unicode="&#x2d9;" horiz-adv-x="278" 
d="M213 989v-160h-152v160h152z" />
    <glyph glyph-name="ring" unicode="&#x2da;" horiz-adv-x="368" 
d="M233 897q-1 33 -25 45t-48 -1t-25 -44q0 -47 49 -47t49 47zM184 754q-56 0 -102 41q-68 61 -29 156t131 91q60 0 102 -42t43 -101t-44 -102t-101 -43z" />
    <glyph glyph-name="ogonek" unicode="&#x2db;" horiz-adv-x="839" 
d="M379 -315q-178 0 -178 139q0 76 75 139l60 43l108 70l48 -74l-37 -25q-51 -29 -78 -55t-33 -65q0 -57 68 -58q42 1 69 15l27 -107v-4q-45 -18 -129 -18z" />
    <glyph glyph-name="tilde" unicode="&#x2dc;" horiz-adv-x="614" 
d="M207 989q41 0 98 -28q57 -27 94 -27t60 53l96 -37q-14 -55 -55 -92t-91 -37t-102 27q-68 27 -90 26q-53 0 -76 -61l-98 31q53 145 164 145z" />
    <glyph glyph-name="hungarumlaut" unicode="&#x2dd;" horiz-adv-x="612" 
d="M102 774h-82l134 256h200zM340 774h-82l133 256h201z" />
    <glyph glyph-name="acutecomb" unicode="&#x301;" horiz-adv-x="0" 
d="M-453 774h-100l137 256h213z" />
    <glyph glyph-name="increment" unicode="&#x394;" horiz-adv-x="1394" 
d="M788 1366l545 -1366h-1272l545 1366h182zM1137 141l-441 1094l-434 -1094h875z" />
    <glyph glyph-name="increment" unicode="&#x2206;" horiz-adv-x="1394" 
d="M788 1366l545 -1366h-1272l545 1366h182zM1137 141l-441 1094l-434 -1094h875z" />
    <glyph glyph-name="Omega" unicode="&#x3a9;" horiz-adv-x="1644" 
d="M647 0h-493v141h239q-121 83 -210 227t-89 312q0 301 201 508q203 205 529 205t527 -206q200 -206 199 -507q0 -354 -286 -539h249v-141h-526v106q184 47 292 210q107 163 107 369t-131 376q-63 88 -177 139t-255 51q-245 0 -405 -166t-160 -407q0 -182 109 -346
q110 -160 280 -219v-113z" />
    <glyph glyph-name="Omega" unicode="&#x2126;" horiz-adv-x="1644" 
d="M647 0h-493v141h239q-121 83 -210 227t-89 312q0 301 201 508q203 205 529 205t527 -206q200 -206 199 -507q0 -354 -286 -539h249v-141h-526v106q184 47 292 210q107 163 107 369t-131 376q-63 88 -177 139t-255 51q-245 0 -405 -166t-160 -407q0 -182 109 -346
q110 -160 280 -219v-113z" />
    <glyph glyph-name="pi" unicode="&#x3c0;" horiz-adv-x="1130" 
d="M219 600v164h-190l-2 131h1050v-131h-137v-528q0 -78 20 -102t82 -25v-129q-61 -4 -75 -5q-72 -1 -120 47t-48 132v610h-439v-209q0 -580 -309 -580h-35v134q203 -1 203 491z" />
    <glyph glyph-name="afii10023" unicode="&#x401;" horiz-adv-x="1142" 
d="M848 1739v-178h-162v178h162zM524 1739v-178h-164v178h164zM365 770h593v-141h-593v-488h659v-141h-811v1364h805v-141h-653v-453z" />
    <glyph glyph-name="afii10051" unicode="&#x402;" horiz-adv-x="1394" 
d="M913 1223h-350v-486q169 88 363 88q194 -1 309 -111t115 -310t-98 -318t-275 -117q-55 0 -125 19l27 135q5 0 33 -6t65 -6q221 0 221 276q0 141 -78 219t-238 78t-319 -92v-592h-151v1223h-351v141h852v-141z" />
    <glyph glyph-name="afii10052" unicode="&#x403;" horiz-adv-x="980" 
d="M612 1518h-106l166 258h227zM952 1364v-141h-587v-1223h-152v1364h739z" />
    <glyph glyph-name="afii10053" unicode="&#x404;" horiz-adv-x="1370" 
d="M938 776v-143h-676q20 -231 177 -375t385 -145q228 0 374 120l90 -102q-199 -162 -457 -162q-174 -1 -317 61t-233 167q-179 217 -179 501t208 491q208 206 526 206q244 0 430 -140l-88 -106q-146 102 -356 102t-366 -132t-188 -343h670z" />
    <glyph glyph-name="afii10054" unicode="&#x405;" horiz-adv-x="1007" 
d="M471 111q147 0 212 59t65 158q0 137 -259 309l-127 86q-88 61 -145 119q-72 80 -72 214t107 234q106 104 276 104t301 -79l-55 -117q-127 55 -231 55t-170 -57t-66 -139t82 -160l283 -201q240 -172 239 -370q0 -162 -125 -259t-305 -98q-227 1 -385 105l68 123
q160 -86 307 -86z" />
    <glyph glyph-name="afii10055" unicode="&#x406;" horiz-adv-x="577" 
d="M365 0h-152v1364h152v-1364z" />
    <glyph glyph-name="afii10056" unicode="&#x407;" horiz-adv-x="577" 
d="M365 0h-152v1364h152v-1364zM528 1739v-178h-161v178h161zM205 1739v-178h-164v178h164z" />
    <glyph glyph-name="afii10057" unicode="&#x408;" horiz-adv-x="702" 
d="M158 111q116 1 150 75t34 250v928h152v-893q0 -283 -70 -391q-68 -111 -248 -111q-65 0 -139 23v135q82 -16 121 -16z" />
    <glyph glyph-name="afii10058" unicode="&#x409;" horiz-adv-x="2021" 
d="M1251 688v-547h248q313 0 313 273q0 130 -82 202t-227 72h-252zM1503 0h-403v1223h-588v-226q0 -694 -170 -913q-90 -115 -238 -115q-43 0 -59 6v150q6 -2 31 -2q170 0 231 233q57 207 58 617v391h886v-535h262q231 1 347 -113t116 -284t-94 -293q-105 -139 -379 -139z
" />
    <glyph glyph-name="afii10059" unicode="&#x40a;" horiz-adv-x="2091" 
d="M1319 686v-545h252q311 0 311 273q0 128 -81 200t-226 72h-256zM1319 1364v-537h264q233 0 346 -112q117 -111 117 -281t-99 -302t-372 -132h-408v688h-802v-688h-152v1364h152v-535h802v535h152z" />
    <glyph glyph-name="afii10060" unicode="&#x40b;" horiz-adv-x="1427" 
d="M915 1223h-352v-486q170 88 361 88q426 0 426 -419v-406h-152v393q0 291 -305 291q-170 0 -330 -92v-592h-151v1223h-351v141h854v-141z" />
    <glyph glyph-name="afii10061" unicode="&#x40c;" horiz-adv-x="1277" 
d="M684 1518h-106l165 258h228zM365 0h-152v1364h152v-641l616 641h199l-639 -649l700 -715h-217l-659 676v-676z" />
    <glyph glyph-name="afii10062" unicode="&#x40e;" horiz-adv-x="1161" 
d="M580 1513q-148 0 -236 65t-98 179h151q16 -102 180 -102t199 102h146q-16 -113 -106 -179q-88 -66 -236 -65zM279 111q85 0 157 60t111 155l-531 1038h170l439 -866l352 866h160l-416 -995q-166 -399 -438 -400q-63 0 -138 23v137q49 -18 134 -18z" />
    <glyph glyph-name="afii10145" unicode="&#x40f;" horiz-adv-x="1560" 
d="M365 1364v-1223h831v1223h152v-1364h-492v-352h-151v352h-492v1364h152z" />
    <glyph glyph-name="afii10017" unicode="&#x410;" horiz-adv-x="1361" 
d="M674 1063l-254 -549h514zM993 375h-641l-174 -375h-162l666 1393l664 -1393h-179z" />
    <glyph glyph-name="afii10018" unicode="&#x411;" horiz-adv-x="1181" 
d="M365 662v-521h256q330 0 329 260q0 260 -323 261h-262zM961 1364v-141h-596v-420h294q213 1 333 -105t120 -292t-119 -296t-346 -110h-434v1364h748z" />
    <glyph glyph-name="afii10019" unicode="&#x412;" horiz-adv-x="1208" 
d="M365 635v-494h253q324 0 324 250q0 115 -80 179t-237 65h-260zM365 1223v-447h231q276 0 276 230q0 217 -286 217h-221zM647 0h-434v1364h360q463 0 463 -338q0 -104 -61 -185t-168 -114v-6q135 -25 217 -116t82 -212q0 -181 -120 -287t-339 -106z" />
    <glyph glyph-name="afii10020" unicode="&#x413;" horiz-adv-x="980" 
d="M952 1364v-141h-587v-1223h-152v1364h739z" />
    <glyph glyph-name="afii10021" unicode="&#x414;" horiz-adv-x="1466" 
d="M1057 141v1082h-572v-344q1 -244 -23 -406t-93 -332h688zM176 0v-301h-151v442l176 -2q139 300 139 729v496h868v-1223h201v-442h-152v301h-1081z" />
    <glyph glyph-name="afii10022" unicode="&#x415;" horiz-adv-x="1142" 
d="M365 770h593v-141h-593v-488h659v-141h-811v1364h805v-141h-653v-453z" />
    <glyph glyph-name="afii10024" unicode="&#x416;" horiz-adv-x="1830" 
d="M840 1364h149v-643l561 643h197l-584 -655l631 -709h-205l-600 674v-674h-149v674l-600 -674h-203l629 707l-582 657h188l568 -645v645z" />
    <glyph glyph-name="afii10025" unicode="&#x417;" horiz-adv-x="1191" 
d="M571 1395q201 1 321 -95t120 -251q0 -101 -60 -187t-172 -127v-6q144 -31 224 -125t79 -225q0 -170 -134 -290t-367 -120q-297 0 -498 195l94 102q193 -156 408 -155q154 -1 244 75t90 199q0 260 -349 260h-159v141h145q291 0 291 250q0 94 -72 156t-211 61
q-186 0 -352 -123l-84 93q190 172 442 172z" />
    <glyph glyph-name="afii10026" unicode="&#x418;" horiz-adv-x="1556" 
d="M1192 0v1030l-979 -1059v1393h152v-1022l978 1053v-1395h-151z" />
    <glyph glyph-name="afii10027" unicode="&#x419;" horiz-adv-x="1556" 
d="M806 1513q-148 0 -235 65q-88 65 -98 179h152q16 -102 180 -102t199 102h145q-15 -113 -105 -179t-238 -65zM1192 0v1030l-979 -1059v1393h152v-1022l978 1053v-1395h-151z" />
    <glyph glyph-name="afii10028" unicode="&#x41a;" horiz-adv-x="1277" 
d="M365 0h-152v1364h152v-641l616 641h199l-639 -649l700 -715h-217l-659 676v-676z" />
    <glyph glyph-name="afii10029" unicode="&#x41b;" horiz-adv-x="1464" 
d="M1100 0v1223h-590v-226q0 -358 -43 -591q-74 -424 -375 -437q-27 0 -47 6v150h12l13 -2h16q172 0 225 254q51 219 51 592v395h889v-1364h-151z" />
    <glyph glyph-name="afii10030" unicode="&#x41c;" horiz-adv-x="1841" 
d="M483 1393l441 -1020l458 1020l381 -1393h-157l-260 969l-431 -957l-413 957l-277 -969h-147z" />
    <glyph glyph-name="afii10031" unicode="&#x41d;" horiz-adv-x="1550" 
d="M1186 670h-821v-670h-152v1364h152v-553h821v553h151v-1364h-151v670z" />
    <glyph glyph-name="afii10032" unicode="&#x41e;" horiz-adv-x="1660" 
d="M831 1253q-249 1 -407 -167t-158 -405t158 -405q160 -166 408 -166t405 164q158 164 158 406q-1 147 -63 276t-195 213t-306 84zM102 689q0 298 205 502t527 204q170 1 313 -63t231 -171q180 -211 180 -489t-200 -490q-202 -213 -526 -213t-527 211t-203 509z" />
    <glyph glyph-name="afii10033" unicode="&#x41f;" horiz-adv-x="1529" 
d="M1167 1223h-802v-1223h-152v1364h1104v-1364h-150v1223z" />
    <glyph glyph-name="afii10034" unicode="&#x420;" horiz-adv-x="1136" 
d="M365 1223v-547h219q344 0 344 270q0 276 -334 277h-229zM606 535h-241v-535h-152v1364h416q213 0 338 -114t125 -301t-123 -301t-363 -113z" />
    <glyph glyph-name="afii10035" unicode="&#x421;" horiz-adv-x="1351" 
d="M831 -31q-174 -1 -317 61t-233 167q-179 217 -179 501t208 491q208 206 526 206q262 0 430 -138l-86 -108q-137 104 -367 104q-231 -1 -389 -159t-158 -411t158 -415q162 -158 414 -157q204 -1 366 118l82 -102q-186 -158 -455 -158z" />
    <glyph glyph-name="afii10036" unicode="&#x422;" horiz-adv-x="976" 
d="M565 0h-151v1223h-353v141h854v-141h-350v-1223z" />
    <glyph glyph-name="afii10037" unicode="&#x423;" horiz-adv-x="1161" 
d="M279 111q85 0 157 60t111 155l-531 1038h170l439 -866l352 866h160l-416 -995q-166 -399 -438 -400q-63 0 -138 23v137q49 -18 134 -18z" />
    <glyph glyph-name="afii10038" unicode="&#x424;" horiz-adv-x="1634" 
d="M244 698q0 -193 139 -296t358 -109v815q-209 -2 -353 -110t-144 -300zM741 1395h152v-146q295 -7 477 -159t182 -392t-188 -393q-188 -147 -471 -153v-183h-152v183q-299 10 -479 156t-180 384q0 178 94 303q182 244 565 254v146zM893 1108v-815q217 2 356 107
q139 106 139 292t-129 298q-130 112 -366 118z" />
    <glyph glyph-name="afii10039" unicode="&#x425;" horiz-adv-x="1150" 
d="M932 0l-363 584l-366 -584h-170l450 713l-411 651h182l321 -512l318 512h178l-414 -639l457 -725h-182z" />
    <glyph glyph-name="afii10040" unicode="&#x426;" horiz-adv-x="1572" 
d="M1315 1364v-1223h201v-442h-152v301h-1151v1364h152v-1223h798v1223h152z" />
    <glyph glyph-name="afii10041" unicode="&#x427;" horiz-adv-x="1245" 
d="M881 1364h151v-1364h-151v625q-184 -86 -381 -86q-422 0 -422 419v406h153v-373q0 -163 71 -237t243 -74t336 90v594z" />
    <glyph glyph-name="afii10042" unicode="&#x428;" horiz-adv-x="2019" 
d="M1806 0h-1593v1364h152v-1223h565v1223h151v-1223h574v1223h151v-1364z" />
    <glyph glyph-name="afii10043" unicode="&#x429;" horiz-adv-x="2070" 
d="M1862 -301v301h-1649v1364h152v-1223h571v1223h151v-1223h574v1223h151v-1223h201v-442h-151z" />
    <glyph glyph-name="afii10044" unicode="&#x42a;" horiz-adv-x="1292" 
d="M524 686v-545h246q313 0 313 273q0 128 -83 200t-226 72h-250zM41 1364h483v-537h262q225 1 343 -107t118 -283t-98 -306t-371 -131h-405v1223h-332v141z" />
    <glyph glyph-name="afii10045" unicode="&#x42b;" horiz-adv-x="1753" 
d="M365 686v-545h243q315 0 316 273q0 128 -83 200t-229 72h-247zM213 1364h152v-537h260q233 0 346 -112q117 -111 117 -282t-93 -294q-104 -139 -379 -139h-403v1364zM1540 0h-151v1364h151v-1364z" />
    <glyph glyph-name="afii10046" unicode="&#x42c;" horiz-adv-x="1136" 
d="M365 686v-545h251q311 0 312 273q0 128 -81 200t-226 72h-256zM213 1364h152v-537h264q233 0 346 -112q117 -111 117 -281t-100 -302t-371 -132h-408v1364z" />
    <glyph glyph-name="afii10047" unicode="&#x42d;" horiz-adv-x="1370" 
d="M577 113q225 1 369 151t164 369h-680v143h672q-24 171 -151 316q-62 72 -159 116t-220 43q-124 1 -214 -33t-188 -108l-80 107q209 178 488 178q210 1 370 -105t240 -264t80 -346q0 -301 -199 -506q-199 -204 -498 -204t-489 184l90 106q180 -147 405 -147z" />
    <glyph glyph-name="afii10048" unicode="&#x42e;" horiz-adv-x="2215" 
d="M1407 1253q-243 1 -393 -165t-150 -407t148 -407q152 -164 398 -164t392 164q147 162 148 406q0 147 -56 276t-186 213q-129 84 -301 84zM365 672v-672h-152v1364h152v-553l344 -2q39 258 231 422q193 164 471 164q139 0 257 -42q215 -77 331 -268q115 -192 115 -403
q0 -291 -192 -502t-510 -211t-515 207q-195 207 -199 496h-333z" />
    <glyph glyph-name="afii10049" unicode="&#x42f;" horiz-adv-x="1257" 
d="M891 676v547h-250q-334 0 -334 -281q0 -114 90 -190t246 -76h248zM891 0v535h-248v2l-393 -537h-189l398 549q-315 104 -316 395q0 180 120 300t335 120h446v-1364h-153z" />
    <glyph glyph-name="afii10065" unicode="&#x430;" horiz-adv-x="741" 
d="M188 201q0 -100 144 -101q78 0 131 27t53 73t-47 74t-122 27t-117 -27t-42 -73zM370 672q132 0 202 -54t71 -149v-469h-129v47q-90 -63 -210 -63t-188 57t-69 155q0 98 74 155q73 59 191 59t202 -48v33q0 84 -33 122t-129 38t-194 -37l-23 109q103 45 235 45z" />
    <glyph glyph-name="afii10066" unicode="&#x431;" horiz-adv-x="862" 
d="M428 106q102 0 162 60t61 151q0 89 -58 149q-59 60 -147 60q-178 0 -229 -164q-8 -98 49 -178q60 -78 162 -78zM471 649q150 0 237 -93q87 -92 87 -236q-1 -144 -97 -240t-254 -96q-192 0 -280 120t-88 355q0 419 92 617t336 233q158 20 205 73l2 -143q-27 -31 -82 -41
q-9 -2 -61 -12q-167 -32 -238 -94q-133 -119 -133 -609q35 82 109 124q75 42 165 42z" />
    <glyph glyph-name="afii10067" unicode="&#x432;" horiz-adv-x="718" 
d="M242 291v-182h151q131 0 131 90q0 47 -38 69t-91 23h-153zM242 547v-158h135q113 0 112 80q0 78 -104 78h-143zM111 0v655h282q115 0 176 -45t62 -121q0 -106 -103 -137q137 -33 138 -153q0 -91 -66 -145t-190 -54h-299z" />
    <glyph glyph-name="afii10068" unicode="&#x433;" horiz-adv-x="569" 
d="M111 655h446v-123h-315v-532h-131v655z" />
    <glyph glyph-name="afii10069" unicode="&#x434;" horiz-adv-x="831" 
d="M565 123v409h-248v-102q0 -172 -59 -307h307zM147 0v-195h-131v318h93v-2q82 94 81 352v182h506v-532h113v-318h-131v195h-531z" />
    <glyph glyph-name="afii10070" unicode="&#x435;" horiz-adv-x="827" 
d="M426 549q-168 0 -219 -141h409q-12 63 -63 102t-127 39zM446 -16q-184 0 -282 102q-96 102 -96 248t104 241q110 97 258 97t238 -97q92 -94 92 -223q0 -23 -6 -53h-557q7 -82 73 -137t164 -56q135 1 221 91l90 -74q-115 -139 -299 -139z" />
    <glyph glyph-name="afii10072" unicode="&#x436;" horiz-adv-x="1003" 
d="M436 0v336l-264 -336h-172l289 354l-260 301h166l241 -295v295h131v-295l242 295h164l-252 -295l283 -360h-173l-264 340v-340h-131z" />
    <glyph glyph-name="afii10073" unicode="&#x437;" horiz-adv-x="651" 
d="M292 672q267 0 267 -174q0 -96 -96 -144q135 -35 135 -155q0 -95 -75 -155t-227 -60t-255 90l63 94q94 -66 224 -66t131 97q0 96 -162 96h-61v108h61q121 0 121 75t-125 75q-76 0 -160 -53l-53 84q82 88 212 88z" />
    <glyph glyph-name="afii10074" unicode="&#x438;" horiz-adv-x="798" 
d="M557 0v391l-446 -405v669h131v-385l446 400v-670h-131z" />
    <glyph glyph-name="afii10075" unicode="&#x439;" horiz-adv-x="798" 
d="M520 1001h125q0 -94 -61 -150t-170 -56t-170 56t-62 150h127q-1 -92 105 -92t106 92zM557 0v391l-446 -405v669h131v-385l446 400v-670h-131z" />
    <glyph glyph-name="afii10076" unicode="&#x43a;" horiz-adv-x="724" 
d="M242 0h-131v655h131v-295l276 295h172l-293 -303l332 -352h-184l-303 328v-328z" />
    <glyph glyph-name="afii10077" unicode="&#x43b;" horiz-adv-x="792" 
d="M551 0v532h-256v-108q0 -228 -53 -334t-170 -106h-41v129h16q69 -1 95 75t26 250v217h514v-655h-131z" />
    <glyph glyph-name="afii10078" unicode="&#x43c;" horiz-adv-x="1028" 
d="M750 367l-232 -381l-246 385l-108 -371h-129l201 670l286 -441l277 441l194 -670h-141z" />
    <glyph glyph-name="afii10079" unicode="&#x43d;" horiz-adv-x="837" 
d="M596 287h-354v-287h-131v655h131v-245h354v245h131v-655h-131v287z" />
    <glyph glyph-name="afii10080" unicode="&#x43e;" horiz-adv-x="864" 
d="M209 330q0 -100 62 -162q63 -62 163 -62t160 62t61 160q0 100 -62 160q-61 60 -161 60t-162 -58q-62 -60 -61 -160zM426 -16q-168 0 -263 102t-95 241q0 140 98 242q98 103 263 103t265 -99q102 -95 102 -249t-100 -247q-102 -93 -270 -93z" />
    <glyph glyph-name="afii10081" unicode="&#x43f;" horiz-adv-x="831" 
d="M721 0h-131v532h-348v-532h-131v655h610v-655z" />
    <glyph glyph-name="afii10082" unicode="&#x440;" horiz-adv-x="894" 
d="M240 328q0 -94 64 -158q65 -64 165 -64q101 0 159 62t58 150q0 90 -58 160t-158 71t-166 -63q-64 -64 -64 -158zM242 -315h-131v970h131v-100q94 117 248 117t245 -109q92 -109 92 -243t-89 -234q-88 -102 -246 -102t-250 118v-417z" />
    <glyph glyph-name="afii10083" unicode="&#x441;" horiz-adv-x="737" 
d="M427 -16q-165 0 -263 102q-96 102 -96 238t92 241q94 106 270 107q141 0 258 -99l-78 -96q-90 72 -184 72q-94 1 -156 -61t-61 -160q0 -98 64 -160q65 -62 166 -62t182 68l73 -90q-102 -100 -267 -100z" />
    <glyph glyph-name="afii10084" unicode="&#x442;" horiz-adv-x="583" 
d="M356 0h-131v532h-194v123h522v-123h-197v-532z" />
    <glyph glyph-name="afii10085" unicode="&#x443;" horiz-adv-x="704" 
d="M410 315l145 340h143l-438 -970h-137l164 360l-281 610h150l149 -342l35 -104l14 -45q31 88 56 151z" />
    <glyph glyph-name="afii10086" unicode="&#x444;" horiz-adv-x="1083" 
d="M606 109q123 0 196 56q72 55 72 161t-72 162t-196 61v-440zM475 1364h131v-692q197 0 303 -94q107 -94 107 -248t-112 -248t-298 -98v-299h-131v299q-193 0 -301 90t-106 248q0 158 108 252t299 98v692zM209 328q0 -104 72 -162t194 -57v440q-129 -1 -197 -59t-69 -162z
" />
    <glyph glyph-name="afii10087" unicode="&#x445;" horiz-adv-x="667" 
d="M500 0l-174 242l-174 -242h-146l240 332l-232 323h160l160 -227l84 113q45 59 82 114h151l-237 -317l248 -338h-162z" />
    <glyph glyph-name="afii10088" unicode="&#x446;" horiz-adv-x="851" 
d="M719 655v-532h110v-318h-131v195h-587v655h131v-532h346v532h131z" />
    <glyph glyph-name="afii10089" unicode="&#x447;" horiz-adv-x="743" 
d="M502 655h131v-655h-131v262q-104 -41 -201 -41q-231 0 -231 236v198h131v-166q0 -145 131 -145q90 0 170 39v272z" />
    <glyph glyph-name="afii10090" unicode="&#x448;" horiz-adv-x="1153" 
d="M1042 0h-931v655h131v-532h268v532h131v-532h270v532h131v-655z" />
    <glyph glyph-name="afii10091" unicode="&#x449;" horiz-adv-x="1179" 
d="M1157 -195h-131v195h-915v655h131v-532h268v532h131v-532h268v532h131v-532h117v-318z" />
    <glyph glyph-name="afii10092" unicode="&#x44a;" horiz-adv-x="808" 
d="M356 307v-190h156q125 0 125 100q0 90 -125 90h-156zM35 655h321v-231h176q118 0 182 -58t64 -147q0 -219 -262 -219h-291v532h-190v123z" />
    <glyph glyph-name="afii10093" unicode="&#x44b;" horiz-adv-x="1036" 
d="M242 307v-190h153q127 0 127 100q0 90 -127 90h-153zM111 655h131v-231h174q120 0 184 -59t64 -145t-58 -154q-58 -66 -207 -66h-288v655zM926 0h-131v655h131v-655z" />
    <glyph glyph-name="afii10094" unicode="&#x44c;" horiz-adv-x="696" 
d="M242 307v-190h155q59 -1 93 27t34 73q0 90 -127 90h-155zM111 655h131v-231h176q116 0 182 -59t66 -143t-58 -154q-58 -68 -207 -68h-290v655z" />
    <glyph glyph-name="afii10095" unicode="&#x44d;" horiz-adv-x="759" 
d="M233 285v108h314q-19 72 -79 113t-151 41t-182 -62l-53 103q106 82 242 82q176 0 272 -104t96 -242t-95 -240t-261 -102t-277 92l72 96q77 -66 181 -66t164 48t75 133h-318z" />
    <glyph glyph-name="afii10096" unicode="&#x44e;" horiz-adv-x="1128" 
d="M502 329q0 -99 58 -159t152 -61q94 0 149 60q57 59 57 159t-58 160t-150 60t-150 -60t-58 -159zM242 655v-239h127q31 112 121 184t232 72q141 0 240 -98t99 -250t-98 -246q-97 -94 -249 -94t-246 89t-108 220h-118v-293h-131v655h131z" />
    <glyph glyph-name="afii10097" unicode="&#x44f;" horiz-adv-x="710" 
d="M469 352v187h-137q-53 0 -82 -25t-29 -65q0 -96 129 -97h119zM336 655h264v-655h-131v250h-100l-168 -250h-166l186 260q-65 18 -103 70t-38 133q0 82 70 137t186 55z" />
    <glyph glyph-name="afii10071" unicode="&#x451;" horiz-adv-x="827" 
d="M352 977v-150h-143v150h143zM625 977v-150h-144v150h144zM426 549q-168 0 -219 -141h409q-12 63 -63 102t-127 39zM446 -16q-184 0 -282 102q-96 102 -96 248t104 241q110 97 258 97t238 -97q92 -94 92 -223q0 -23 -6 -53h-557q7 -82 73 -137t164 -56q135 1 221 91
l90 -74q-115 -139 -299 -139z" />
    <glyph glyph-name="afii10099" unicode="&#x452;" horiz-adv-x="796" 
d="M563 -18v364q0 109 -31 156q-32 47 -112 47t-129 -51t-49 -131v-367h-133v797h-105v108h105v459h133v-459h303v-108h-303v-250q29 57 87 91t126 34q131 0 187 -71t56 -216l-2 -442q0 -92 -56 -175t-171 -83h-14v122h8q100 1 100 175z" />
    <glyph glyph-name="afii10100" unicode="&#x453;" horiz-adv-x="569" 
d="M332 774h-101l138 256h213zM111 655h446v-123h-315v-532h-131v655z" />
    <glyph glyph-name="afii10101" unicode="&#x454;" horiz-adv-x="757" 
d="M524 401v-122h-315q11 -74 75 -122t161 -48t176 65l77 -96q-106 -94 -271 -94t-263 102q-96 102 -96 238t92 241q94 106 270 107q141 0 258 -99l-78 -96q-88 72 -175 72t-145 -40t-75 -108h309z" />
    <glyph glyph-name="afii10102" unicode="&#x455;" horiz-adv-x="600" 
d="M319 549q-78 0 -77 -53q0 -47 112 -99l29 -14q80 -45 118 -90t38 -124t-65 -131q-64 -52 -182 -52t-231 77l62 107q92 -61 183 -61t91 75q0 47 -133 119l-37 19q-67 38 -97 80t-30 111t62 114t162 45q98 0 188 -49l-49 -105q-92 31 -144 31z" />
    <glyph glyph-name="afii10103" unicode="&#x456;" horiz-adv-x="352" 
d="M242 977v-152h-131v152h131zM242 0h-131v655h131v-655z" />
    <glyph glyph-name="afii10104" unicode="&#x457;" horiz-adv-x="352" 
d="M240 0h-131v655h131v-655zM106 977v-150h-143v150h143zM379 977v-150h-143v150h143z" />
    <glyph glyph-name="afii10105" unicode="&#x458;" horiz-adv-x="350" 
d="M240 977v-152h-131v152h131zM109 -18v673h131v-712q0 -92 -58 -174q-55 -84 -170 -84h-14v122h8q103 1 103 175z" />
    <glyph glyph-name="afii10106" unicode="&#x459;" horiz-adv-x="1118" 
d="M666 307v-190h155q59 -1 92 27t33 73q0 90 -125 90h-155zM666 655v-231h174q120 0 184 -58t64 -140t-37 -131q-69 -95 -226 -95h-290v532h-240v-108q0 -225 -52 -333t-173 -107h-39v131l16 -2q49 0 76 45q45 74 45 278v219h498z" />
    <glyph glyph-name="afii10107" unicode="&#x45a;" horiz-adv-x="1163" 
d="M711 307v-190h155q125 0 125 98q0 92 -125 92h-155zM711 655v-231h174q119 0 183 -58t65 -139q0 -81 -47 -146q-58 -81 -216 -81h-290v301h-338v-301h-131v655h131v-231h338v231h131z" />
    <glyph glyph-name="afii10108" unicode="&#x45b;" horiz-adv-x="796" 
d="M242 1364v-459h301v-108h-301v-250q29 57 87 91t126 34q244 0 243 -264v-408h-133v371q0 178 -147 178q-78 0 -127 -51t-49 -131v-367h-133v797h-105v108h105v459h133z" />
    <glyph glyph-name="afii10109" unicode="&#x45c;" horiz-adv-x="724" 
d="M416 774h-101l138 256h213zM242 0h-131v655h131v-295l276 295h172l-293 -303l332 -352h-184l-303 328v-328z" />
    <glyph glyph-name="afii10110" unicode="&#x45e;" horiz-adv-x="704" 
d="M469 1001h125q0 -94 -62 -150t-170 -56q-110 0 -170 56t-61 150h127q0 -92 106 -92t105 92zM410 315l145 340h143l-438 -970h-137l164 360l-281 610h150l149 -342l35 -104l14 -45q31 88 56 151z" />
    <glyph glyph-name="afii10193" unicode="&#x45f;" horiz-adv-x="815" 
d="M242 655v-532h331v532h132v-655h-228v-182h-131v182h-235v655h131z" />
    <glyph glyph-name="afii10146" unicode="&#x462;" horiz-adv-x="1320" 
d="M567 688v-549h250q315 0 316 279q0 118 -79 194t-233 76h-254zM952 1047h-385v-220h264q236 -1 351 -113q114 -112 114 -284t-93 -292q-106 -138 -380 -138h-407v1047h-305v129h305v188h151v-188h385v-129z" />
    <glyph glyph-name="afii10194" unicode="&#x463;" horiz-adv-x="696" 
d="M242 307v-190h155q57 1 91 27t34 73q0 90 -125 90h-155zM399 0h-288v545h-107v106h107v449h131v-449h303v-106h-303v-121h174q118 0 184 -59t66 -143t-58 -152q-58 -70 -209 -70z" />
    <glyph glyph-name="afii10147" unicode="&#x472;" horiz-adv-x="1660" 
d="M1124 686q118 0 271 90q-52 278 -277 406q-127 72 -282 71q-221 0 -385 -145q-160 -146 -185 -365q182 102 322 103q84 0 251 -80t285 -80zM837 111q232 0 382 143t178 381q-133 -90 -265 -90t-300 80q-170 79 -284 79t-282 -100q33 -211 186 -352t385 -141zM100 689
q0 298 206 502t532 204q172 -1 314 -63t230 -171q176 -213 177 -479q0 -184 -83 -345t-253 -264t-385 -104q-328 0 -533 211t-205 509z" />
    <glyph glyph-name="afii10195" unicode="&#x473;" horiz-adv-x="864" 
d="M424 -16q-168 0 -262 100t-94 242q0 141 96 243q98 103 262 103t266 -98t102 -250q0 -154 -100 -247q-102 -93 -270 -93zM432 106q86 0 148 48t77 122q-59 -36 -113 -36t-118 30q-66 30 -115 31q-49 0 -102 -33q17 -76 77 -119t146 -43zM322 418q58 0 122 -32t115 -32
t98 27q-14 78 -76 123q-61 45 -149 45t-149 -46t-76 -124q57 39 115 39z" />
    <glyph glyph-name="afii10148" unicode="&#x474;" horiz-adv-x="1439" 
d="M1280 1395q43 0 137 -23l-22 -117q-99 23 -139 -11q-23 -19 -48 -70l-538 -1201l-654 1391h170l486 -1049l403 924q68 156 205 156z" />
    <glyph glyph-name="afii10196" unicode="&#x475;" horiz-adv-x="782" 
d="M668 672q37 0 106 -21l-24 -104q-35 8 -73 8t-61 -49l-219 -506h-96l-295 655h150l149 -342q20 -43 49 -149q25 86 49 151l99 248q47 109 166 109z" />
    <glyph glyph-name="afii10050" unicode="&#x490;" horiz-adv-x="980" 
d="M952 1552v-327h-587v-1225h-152v1364h614v188h125z" />
    <glyph glyph-name="afii10098" unicode="&#x491;" horiz-adv-x="546" 
d="M111 655h323v183h125v-306h-315v-532h-133v655z" />
    <glyph glyph-name="cyrstraightU" unicode="&#x4ae;" horiz-adv-x="1179" 
d="M514 0v449l-494 915h173l403 -756l395 756h168l-491 -918v-446h-154z" />
    <glyph glyph-name="cyrstraightu" unicode="&#x4af;" horiz-adv-x="688" 
d="M418 -317h-135v374l-277 596h141l152 -344q2 -6 6 -16q4 -11 10 -29t13 -33l26 -71q25 88 52 151l137 342h141l-266 -596v-374z" />
    <glyph glyph-name="cyrH" unicode="&#x4ba;" horiz-adv-x="1245" 
d="M365 0h-152v1364h152v-625q184 86 380 86q422 0 422 -419v-406h-153v373q0 163 -71 237t-243 74t-335 -90v-594z" />
    <glyph glyph-name="cyrh" unicode="&#x4bb;" horiz-adv-x="798" 
d="M242 0h-131v1364h131v-817q29 57 88 91t127 34q244 0 243 -264v-408h-133v371q0 90 -32 134q-33 44 -113 44t-130 -53t-50 -129v-367z" />
    <glyph glyph-name="Germandbls" unicode="&#x1e9e;" horiz-adv-x="1138" 
d="M686 113q98 0 158 57q59 57 59 180q0 76 -51 158q-48 86 -116 154t-136 131l-45 47l203 383q-113 100 -233 100t-179 -79t-59 -220v-1024h-140v1018q0 436 373 436q274 0 398 -199l-205 -378l57 -54v2q101 -85 193 -199q93 -114 93 -280t-94 -266q-95 -100 -266 -100
q-129 -1 -254 83l60 111q86 -61 184 -61z" />
    <glyph glyph-name="uni2010" unicode="&#x2010;" horiz-adv-x="874" 
d="M721 299h-567v141h567v-141z" />
    <glyph glyph-name="uni2011" unicode="&#x2011;" horiz-adv-x="874" 
d="M721 299h-567v141h567v-141z" />
    <glyph glyph-name="figuredash" unicode="&#x2012;" horiz-adv-x="1128" 
d="M944 625h-760v141h760v-141z" />
    <glyph glyph-name="endash" unicode="&#x2013;" horiz-adv-x="1128" 
d="M944 297h-760v141h760v-141z" />
    <glyph glyph-name="emdash" unicode="&#x2014;" horiz-adv-x="1675" 
d="M1491 299h-1307v141h1307v-141z" />
    <glyph glyph-name="quoteleft" unicode="&#x2018;" horiz-adv-x="450" 
d="M268 866h-176l146 498h120z" />
    <glyph glyph-name="quoteright" unicode="&#x2019;" horiz-adv-x="450" 
d="M182 1364h176l-145 -498h-121z" />
    <glyph glyph-name="quotesinglbase" unicode="&#x201a;" horiz-adv-x="471" 
d="M193 229h176l-148 -493h-119z" />
    <glyph glyph-name="quotedblleft" unicode="&#x201c;" horiz-adv-x="798" 
d="M268 866h-176l148 498h118zM618 866h-176l146 498h119z" />
    <glyph glyph-name="quotedblright" unicode="&#x201d;" horiz-adv-x="798" 
d="M528 1364h179l-146 -498h-117zM180 1364h178l-147 -498h-119z" />
    <glyph glyph-name="quotedblbase" unicode="&#x201e;" horiz-adv-x="833" 
d="M553 229h178l-145 -493h-117zM188 229h179l-148 -493h-117z" />
    <glyph glyph-name="dagger" unicode="&#x2020;" horiz-adv-x="995" 
d="M567 -451h-139v1239h-352v140h352v436h139v-436h353v-140h-353v-1239z" />
    <glyph glyph-name="daggerdbl" unicode="&#x2021;" horiz-adv-x="995" 
d="M567 -451h-139v574h-352v139h352v526h-352v140h352v436h139v-436h353v-140h-353v-526h353v-139h-353v-574z" />
    <glyph glyph-name="bullet" unicode="&#x2022;" horiz-adv-x="335" 
d="M169 457q-46 1 -77 33t-31 81t31 82t77 33t76 -36q29 -36 29 -80t-30 -78t-75 -35z" />
    <glyph glyph-name="ellipsis" unicode="&#x2026;" horiz-adv-x="1257" 
d="M1047 0v188h188v-188h-188zM567 0v188h189v-188h-189zM90 0v188h189v-188h-189z" />
    <glyph glyph-name="perthousand" unicode="&#x2030;" horiz-adv-x="2760" 
d="M1606 1327l-1153 -1323l-88 86l1144 1325zM2271 82q109 0 165 71t56 191t-51 201q-51 82 -165 82t-172 -76t-58 -201q0 -124 58 -196t167 -72zM1915 344q0 168 95 284t265 116t259 -114t89 -281t-101 -275t-257 -109t-253 105t-97 274zM1452 82q109 0 165 71t56 191
t-51 201q-51 82 -165 82t-172 -76t-58 -201q0 -124 58 -196t167 -72zM1096 344q0 168 95 284t265 116t259 -114t89 -281t-101 -275t-257 -109t-253 105t-97 274zM489 778q109 0 165 71t56 191t-50 202q-52 82 -166 81q-114 0 -172 -76q-58 -77 -58 -201t58 -196t167 -72z
M133 1041q0 167 95 283t265 116q169 0 259 -114t90 -280t-102 -276q-102 -108 -257 -108q-156 0 -253 106t-97 273z" />
    <glyph glyph-name="guilsinglleft" unicode="&#x2039;" horiz-adv-x="491" 
d="M285 68l-189 258l189 260h145l-184 -260l184 -258h-145z" />
    <glyph glyph-name="guilsinglright" unicode="&#x203a;" horiz-adv-x="491" 
d="M207 586l188 -260l-188 -258h-146l187 258l-187 260h146z" />
    <glyph glyph-name="fraction" unicode="&#x2044;" horiz-adv-x="299" 
d="M791 1327l-1151 -1323l-91 86l1145 1325z" />
    <glyph glyph-name="Euro" unicode="&#x20ac;" horiz-adv-x="1052" 
d="M322 694q0 -35 6 -71h460l-38 -129h-398q56 -168 194 -276t292 -107q51 0 118 12l11 -137q-82 -16 -146 -17q-241 0 -413 161t-224 364h-164l41 129h103q-4 53 -4 81t6 76h-146l41 129h132q61 197 241 341t393 145q86 0 187 -31l-56 -125q-66 14 -131 14
q-167 -1 -285 -101t-175 -243h491l-41 -129h-487q-8 -51 -8 -86z" />
    <glyph glyph-name="uni20B4" unicode="&#x20b4;" horiz-adv-x="985" 
d="M465 -31q-174 0 -270 78q-97 78 -97 197t129 248h-190v129h276l156 151h-432v129h526q133 123 133 193t-51 115q-51 44 -141 44q-145 0 -268 -61l-66 113q158 90 328 90t265 -75q95 -74 95 -180t-108 -239h196v-129h-295l-155 -151h450v-129h-551q-133 -121 -133 -220
q0 -162 219 -161q166 0 316 84l61 -107q-162 -119 -393 -119z" />
    <glyph glyph-name="uni20BD" unicode="&#x20bd;" horiz-adv-x="1028" 
d="M373 1223v-508h176q297 0 297 258q0 127 -72 188t-233 62h-168zM221 586h-186v129h186v649h332q227 0 342 -109t115 -285t-115 -280t-334 -104h-188v-150h252v-129h-252v-307h-152v307h-186v129h186v150z" />
    <glyph glyph-name="afii61352" unicode="&#x2116;" horiz-adv-x="2187" 
d="M1784 768q90 0 139 67t49 170t-45 175q-43 76 -140 76t-147 -69q-49 -69 -49 -176q-1 -107 51 -175t142 -68zM2103 1011q0 -149 -89 -250t-233 -101q-145 0 -233 96t-88 244t84 257q86 107 244 107t236 -102t79 -251zM354 0h-141v1397l883 -1024v991h141v-1393l-883 1028
v-999zM1481 373v133h618v-133h-618z" />
    <glyph glyph-name="trademark" unicode="&#x2122;" horiz-adv-x="1247" 
d="M1012 1145l-164 -244l-172 244l-70 -230h-102l141 447l203 -289l199 289l147 -447h-109zM311 915h-96v338h-141v90h381v-90h-144v-338z" />
    <glyph glyph-name="partialdiff" unicode="&#x2202;" horiz-adv-x="1161" 
d="M920 528q-44 117 -132 186q-88 68 -228 68t-240 -107q-101 -107 -103 -245t86 -228q88 -89 231 -90q143 0 253 120t133 296zM1079 684q0 -218 -85 -390q-150 -310 -480 -310q-201 0 -324 131q-122 131 -122 321t136 332t345 143q250 0 375 -172l8 6q-6 137 -54 254
t-169 219t-303 140l24 110q375 -61 518 -288q131 -207 131 -496z" />
    <glyph glyph-name="product" unicode="&#x220f;" horiz-adv-x="1687" 
d="M1352 1225h-1016v-1676h-152v1817h1319v-1817h-151v1676z" />
    <glyph glyph-name="summation" unicode="&#x2211;" horiz-adv-x="1073" 
d="M1073 1366v-141h-848l510 -758l-549 -776h887v-142h-1155l637 908l-604 909h1122z" />
    <glyph glyph-name="minus" unicode="&#x2212;" horiz-adv-x="1216" 
d="M1118 543h-1012v141h1012v-141z" />
    <glyph glyph-name="division" unicode="&#x2215;" horiz-adv-x="1427" 
d="M1288 1288l-1042 -1734l-107 73l1037 1737z" />
    <glyph glyph-name="radical" unicode="&#x221a;" horiz-adv-x="948" 
d="M1272 1460v-141h-357l-337 -1405h-158l-340 881h-182v141h282l312 -817l309 1341h471z" />
    <glyph glyph-name="infinity" unicode="&#x221e;" horiz-adv-x="1495" 
d="M1071 389q66 0 106 39t40 96q0 58 -40 98t-106 40q-120 -1 -233 -136q113 -137 233 -137zM279 524q1 -56 41 -96q40 -39 108 -39q112 0 231 143q-117 129 -225 130q-66 0 -110 -41t-45 -97zM1106 793q114 0 180 -84q66 -83 66 -185t-70 -184t-205 -82q-92 0 -164 43
t-165 148q-96 -99 -172 -145t-158 -46q-135 0 -205 82t-70 183t77 185t210 85q181 -1 324 -175q96 96 167 136t185 39z" />
    <glyph glyph-name="integral" unicode="&#x222b;" horiz-adv-x="520" 
d="M328 1016v-1036q0 -139 -29 -232q-53 -199 -254 -199q-74 0 -168 23l31 131q47 -12 96 -12q106 0 147 65q40 66 39 213v1037q0 428 283 432q88 0 223 -31l-37 -135q-94 25 -145 24q-106 0 -146 -66t-40 -214z" />
    <glyph glyph-name="approxequal" unicode="&#x2248;" horiz-adv-x="1284" 
d="M929 432q91 0 181 78l72 -107q-113 -119 -236 -119t-352 99q-150 61 -224 61t-184 -92l-10 -8l-74 105q137 143 275 143q72 0 252 -72q209 -88 300 -88zM929 780q91 0 181 78l72 -106q-113 -119 -236 -119t-352 98q-150 61 -224 61t-177 -85l-7 -7l-10 -8l-74 105
q137 143 275 143q72 0 252 -72q209 -88 300 -88z" />
    <glyph glyph-name="notequal" unicode="&#x2260;" horiz-adv-x="1220" 
d="M102 358v142h334l154 241h-488v142h576l207 327l104 -63l-168 -264h297v-142h-387l-151 -241h538v-142h-624l-152 -233l-102 63l110 170h-248z" />
    <glyph glyph-name="lessequal" unicode="&#x2264;" horiz-adv-x="1196" 
d="M1094 176v-141l-992 459v147zM1094 340l-992 459l992 461v-140l-682 -323l682 -316v-141z" />
    <glyph glyph-name="greaterequal" unicode="&#x2265;" horiz-adv-x="1198" 
d="M102 12v140l994 473v-152zM102 1260l992 -461l-992 -459v139l682 320l-682 319v142z" />
    <glyph glyph-name="lozenge" unicode="&#x25ca;" horiz-adv-x="702" 
d="M346 193l174 294l-170 289l-170 -299zM391 969l291 -486l-293 -483h-78l-291 481l289 488h82z" />
    <glyph glyph-name="accent" unicode="&#xf400;" horiz-adv-x="0" 
d="M-453 774h-100l137 256h213z" />
    <glyph glyph-name="Accent" unicode="&#xf401;" horiz-adv-x="0" 
d="M-694 1518h-107l166 258h227z" />
    <glyph glyph-name="Breve" unicode="&#xf406;" horiz-adv-x="819" 
d="M410 1495q-104 0 -193 53q-88 53 -131 144l94 71q96 -129 232 -129t237 131l94 -71q-125 -199 -333 -199z" />
    <glyph glyph-name="Cedilla" unicode="&#xf407;" horiz-adv-x="522" 
d="M168 0h117v-106q75 -8 117 -48t42 -100q0 -86 -90 -135t-207 -49q-2 0 -63 4l8 108q14 -2 60 -2t84 16t36 52q0 55 -104 65v195z" />
    <glyph glyph-name="Circumflex" unicode="&#xf408;" horiz-adv-x="733" 
d="M532 1495l-161 180l-162 -180h-117l203 301h147l205 -301h-115z" />
    <glyph glyph-name="Commaaccent" unicode="&#xf409;" horiz-adv-x="716" 
d="M266 -137h166l-119 -314h-96z" />
    <glyph glyph-name="Apostrophe" unicode="&#xf40a;" horiz-adv-x="716" 
d="M317 1395h179l-146 -498h-121z" />
    <glyph glyph-name="Dotaccent" unicode="&#xf40b;" horiz-adv-x="380" 
d="M272 1739v-178h-163v178h163z" />
    <glyph glyph-name="Ring" unicode="&#xf40c;" horiz-adv-x="505" 
d="M184 1687q0 -30 20 -52q20 -21 51 -21q29 0 51 22t22 51q0 31 -22 53t-50 22t-50 -23q-22 -22 -22 -52zM446 1688q0 -74 -56 -134t-136 -59q-80 3 -134 57t-54 136q-4 59 30 106q75 101 197 81q59 -9 106 -61t47 -126z" />
    <glyph glyph-name="Tilde" unicode="&#xf40d;" horiz-adv-x="825" 
d="M280 1724q66 0 145 -38t123 -37q44 0 81 55l12 20l111 -41q-20 -77 -72 -125t-110 -48t-139 37q-81 38 -138 38t-100 -88l-107 37q18 82 74 136q54 54 120 54z" />
    <glyph glyph-name="Ogonek" unicode="&#xf40e;" horiz-adv-x="569" 
d="M358 -309q47 0 97 12l32 -131q-80 -23 -177 -23q-97 1 -162 49q-64 48 -64 144t97 180t186 139l41 27l63 -88l-51 -31q-170 -102 -170 -192q-1 -86 108 -86z" />
    <glyph glyph-name="zero.tab" unicode="&#xf4e0;" 
d="M244 682q0 -294 43 -412q69 -174 239 -174t222 131q41 97 48 197t7 222t-1 156q-4 140 -32 254q-52 212 -246 212q-92 -6 -146 -42q-106 -71 -128 -321l-6 -110v-113zM92 685q0 255 43 407t135 225q92 72 254 76q256 0 346 -203q84 -174 84 -519t-94 -522t-336 -178
q-207 0 -315 140q-45 61 -74 157q-43 162 -43 417z" />
    <glyph glyph-name="one.tab" unicode="&#xf4e1;" 
d="M614 1364v-1364h-141v1141l-194 -183v152l256 254h79z" />
    <glyph glyph-name="two.tab" unicode="&#xf4e2;" 
d="M741 1013q0 120 -65 183q-66 64 -190 64t-257 -80l-59 102q158 109 340 109q182 -1 282 -105t101 -240q0 -136 -86 -290q-86 -152 -254 -353l-229 -272h553l-60 -131h-766l281 334q217 256 313 408t96 271z" />
    <glyph glyph-name="three.tab" unicode="&#xf4e3;" 
d="M463 1391q180 0 279 -85q100 -86 100 -210t-65 -206t-173 -118v-2q137 -25 228 -124t92 -230q0 -209 -144 -328q-145 -117 -374 -117q-135 0 -273 49v136q141 -54 293 -54t249 79t97 216t-95 219t-280 80h-45v131h35q149 1 227 59t78 160t-66 157q-67 56 -193 56
t-257 -61l-55 107q162 86 342 86z" />
    <glyph glyph-name="four.tab" unicode="&#xf4e4;" 
d="M676 358v672l-445 -672h445zM817 358h139l-26 -131h-113v-227h-141v227h-621v95l688 1042h74v-1006z" />
    <glyph glyph-name="five.tab" unicode="&#xf4e5;" 
d="M399 -29q-150 0 -278 49v134q100 -52 266 -52t270 90q105 90 105 244q0 152 -120 244t-323 92h-149l192 592h549l-41 -135h-424l-104 -334q268 -2 419 -125t151 -328t-147 -338q-146 -133 -366 -133z" />
    <glyph glyph-name="six.tab" unicode="&#xf4e6;" 
d="M250 379q0 -123 77 -200t205 -77t204 79q77 79 77 196t-76 198q-74 87 -205 87t-206 -82q-76 -78 -76 -201zM965 397q0 -168 -117 -297t-308 -129t-317 119q-125 119 -125 287t58 305q57 137 186 307l287 375h186l-481 -623l4 -6q94 57 221 58q174 0 290 -114t116 -282z
" />
    <glyph glyph-name="seven.tab" unicode="&#xf4e7;" 
d="M745 1233h-622l61 131h789l-697 -1364h-159z" />
    <glyph glyph-name="eight.tab" unicode="&#xf4e8;" 
d="M748 1030q0 102 -56 167t-167 65q-110 0 -165 -72t-55 -167q1 -95 59 -161t160 -66t163 66t61 168zM803 384q0 126 -75 204t-203 78q-129 0 -205 -79t-76 -204t74 -203t204 -78q131 0 206 78t75 204zM897 1053q0 -215 -211 -308l2 -2q127 -43 197 -141t69 -223
q0 -160 -118 -285q-119 -123 -312 -123q-192 0 -312 120q-120 119 -120 267t72 244t198 141q-209 88 -208 293q0 144 104 250t276 106t268 -106q96 -108 95 -233z" />
    <glyph glyph-name="nine.tab" unicode="&#xf4e9;" 
d="M799 974q0 122 -77 205t-205 83t-205 -79q-76 -79 -76 -198t77 -207q78 -84 209 -84t204 79t73 201zM84 974q0 165 117 292t306 127t316 -121t127 -296t-51 -299t-184 -300l-293 -377h-191l490 623l-2 2q-98 -61 -217 -62q-188 0 -303 123t-115 288z" />
    <glyph glyph-name="dollar.tab" unicode="&#xf4ec;" 
d="M616 -240h-122v207q-221 6 -379 105l63 127q172 -86 316 -86t210 59q64 58 64 146t-68 162t-206 167l-113 78q-121 84 -170 152q-49 69 -49 185t93 215t239 112v155h122v-151q115 -10 234 -78l-59 -119q-109 57 -224 57t-177 -58t-62 -139t73 -147l62 -51l233 -166
q233 -170 234 -366q0 -129 -83 -222q-84 -91 -231 -122v-222z" />
    <glyph glyph-name="Euro.tab" unicode="&#xf4ed;" 
d="M326 694q0 -35 6 -71h461l-39 -129h-398q56 -168 194 -276t292 -107q51 0 119 12l10 -137q-82 -16 -146 -17q-241 0 -413 161t-224 364h-163l41 129h102q-4 53 -4 81t6 76h-145l41 129h131q61 197 241 341t393 145q86 0 187 -31l-55 -125q-66 14 -132 14
q-167 -1 -285 -101t-175 -243h491l-41 -129h-487q-8 -51 -8 -86z" />
    <glyph glyph-name="cent.tab" unicode="&#xf4ee;" 
d="M643 -250h-117v230q-196 24 -310 148t-114 305t118 311t306 153v229h117v-229q147 -2 287 -109l-74 -96q-108 88 -258 88t-245 -95t-95 -239t95 -244q95 -102 252 -102t263 80l76 -92q-113 -88 -301 -111v-227z" />
    <glyph glyph-name="sterling.tab" unicode="&#xf4ef;" 
d="M624 1253q-114 -1 -185 -71q-136 -135 -9 -477h313v-130h-278q12 -68 12 -133q0 -156 -139 -284l6 -8q130 53 264 -7q74 -33 123 -32q88 0 166 79l80 -94q-137 -127 -252 -127q-47 0 -140 36t-149 36q-104 0 -194 -55l-95 168q102 76 150 140q47 66 47 138t-31 143h-196
v130h145q-57 154 -57 280q0 188 118 299t314 111q145 0 278 -80l-63 -121q-114 59 -228 59z" />
    <glyph glyph-name="yen.tab" unicode="&#xf4fa;" 
d="M446 526h-356v129h295l-377 709h172l346 -655l342 655h170l-385 -709h308v-129h-363v-143h363v-129h-363v-254h-152v254h-356v129h356v143z" />
    <glyph glyph-name="florin.tab" unicode="&#xf4fb;" 
d="M150 -326q100 0 150 76t65 223l79 793h-108l12 129h109l14 119q20 172 80 293q72 147 250 147h61l-12 -127h-21q-182 0 -219 -299l-14 -133h117l-13 -129h-116l-78 -780q-45 -436 -330 -437h-57l10 125h21z" />
    <glyph glyph-name="uni20B4.tab" unicode="&#xf4fc;" 
d="M498 -31q-174 0 -271 78q-96 78 -96 197t129 248h-190v129h276l156 151h-432v129h526q133 123 133 193t-51 115q-51 44 -141 44q-145 0 -269 -61l-65 113q158 90 328 90t265 -75q95 -74 95 -180t-109 -239h197v-129h-295l-156 -151h451v-129h-551q-133 -121 -133 -220
q0 -162 219 -161q165 0 315 84l62 -107q-162 -119 -393 -119z" />
    <glyph glyph-name="uni20BD.tab" unicode="&#xf4fd;" 
d="M391 1223v-508h176q297 0 297 258q0 127 -71 188q-72 61 -234 62h-168zM240 586h-187v129h187v649h331q227 0 342 -109t115 -285t-115 -280t-333 -104h-189v-150h252v-129h-252v-307h-151v307h-187v129h187v150z" />
    <glyph glyph-name="currency.tab" unicode="&#xf4fe;" 
d="M211 694q0 -137 89 -226t219 -89t223 83q94 83 94 216t-86 231q-82 101 -222 101t-228 -90q-89 -90 -89 -226zM524 1157q164 0 283 -96l188 188l90 -90l-192 -190q94 -125 94 -275t-92 -274l190 -191l-90 -88l-190 189l-29 -23l2 4q-118 -80 -264 -80t-272 97l-189 -187
l-86 88l187 189q-92 124 -92 274t92 279l-191 188l88 90l191 -188q118 96 282 96z" />
    <glyph glyph-name="uniF643" unicode="&#xf643;" 
d="M305 329q1 -93 61 -153t156 -59q96 0 157 59q60 60 60 150t-58 152q-57 62 -157 64t-160 -60q-60 -60 -59 -153zM160 328q0 132 98 238q98 108 263 108t263 -105q100 -100 100 -244q0 -145 -102 -243t-268 -98t-260 106t-94 238z" />
    <glyph glyph-name="uniF644" unicode="&#xf644;" 
d="M653 657v-657h-135v453l-125 -121v147l178 178h82z" />
    <glyph glyph-name="uniF645" unicode="&#xf645;" 
d="M641 420q0 127 -141 127q-100 0 -168 -68l-62 113q109 82 238 82t204 -66q74 -66 74 -158t-52 -166q-52 -73 -169 -157h238l-60 -127h-499l84 70q127 104 173 144t93 101t47 105z" />
    <glyph glyph-name="uniF646" unicode="&#xf646;" 
d="M468 672q134 0 212 -64q82 -63 82 -159q0 -145 -139 -211q197 -51 196 -256q-1 -131 -109 -215t-270 -84q-98 0 -204 41v131q102 -45 204 -45q231 0 232 180q0 82 -62 130t-176 46h-49v125h43q186 0 186 137q0 51 -43 84q-43 32 -127 32t-157 -59l-60 113q107 74 241 74z
" />
    <glyph glyph-name="uniF647" unicode="&#xf647;" 
d="M575 127v293l-210 -293h210zM713 127h143l-39 -127h-104v-315h-138v315h-387v78l441 594h84v-545z" />
    <glyph glyph-name="uniF648" unicode="&#xf648;" 
d="M813 22q0 -144 -93 -240q-93 -97 -280 -97q-117 0 -209 43v131q92 -45 203 -45t171 59q61 59 61 152t-72 147t-209 53h-125l137 432h414l-39 -127h-299l-63 -188q195 0 299 -88t104 -232z" />
    <glyph glyph-name="uniF649" unicode="&#xf649;" 
d="M344 286q0 -81 49 -130q49 -50 131 -50t132 50t50 128q0 77 -50 130t-132 53t-131 -50t-49 -131zM543 594q131 0 219 -83t88 -211t-87 -224t-231 -96t-240 89q-95 89 -95 226q1 90 31 180q30 91 72 151t75 103l209 268h180l-338 -430q51 27 117 27z" />
    <glyph glyph-name="uniF64A" unicode="&#xf64a;" 
d="M641 528h-448l69 127h592l-496 -970h-147z" />
    <glyph glyph-name="uniF64B" unicode="&#xf64b;" 
d="M662 743q0 59 -38 103t-102 45q-64 0 -99 -43q-36 -42 -36 -102t38 -104t98 -44t100 43q39 43 39 102zM702 287q0 80 -50 132t-131 52t-130 -51t-49 -131t48 -131q48 -52 131 -52t132 50t49 131zM848 276q0 -120 -89 -208t-237 -88t-236 88q-89 88 -89 196q0 106 49 176
t133 97q-63 27 -101 84t-38 129q0 112 78 190t205 78q126 0 205 -78t79 -190q0 -154 -133 -215q174 -57 174 -259z" />
    <glyph glyph-name="uniF64C" unicode="&#xf64c;" 
d="M522 545q-74 0 -124 -50t-50 -125t46 -124t123 -49t129 51t52 125t-51 123t-125 49zM203 366q0 120 86 214q86 92 227 92t234 -86q94 -82 94 -206t-42 -222t-130 -213l-205 -264h-176l321 411q-55 -23 -98 -22q-141 0 -227 86q-84 90 -84 210z" />
    <glyph glyph-name="uniF6BA" unicode="&#xf6ba;" horiz-adv-x="874" 
d="M721 625h-567v141h567v-141z" />
    <glyph glyph-name="uniF6BB" unicode="&#xf6bb;" horiz-adv-x="1128" 
d="M944 625h-760v141h760v-141z" />
    <glyph glyph-name="uniF6BC" unicode="&#xf6bc;" horiz-adv-x="1675" 
d="M1491 625h-1307v141h1307v-141z" />
    <glyph glyph-name="commaaccent" unicode="&#xf6c3;" horiz-adv-x="522" 
d="M174 -68h160l-111 -254h-94z" />
    <glyph glyph-name="Acute" unicode="&#xf6c9;" horiz-adv-x="591" 
d="M203 1518h-107l166 258h227z" />
    <glyph glyph-name="Caron" unicode="&#xf6ca;" horiz-adv-x="733" 
d="M209 1821l162 -181l164 181h112l-205 -303h-147l-201 303h115z" />
    <glyph glyph-name="Dieresis" unicode="&#xf6cb;" horiz-adv-x="696" 
d="M596 1739v-178h-162v178h162zM272 1739v-178h-163v178h163z" />
    <glyph glyph-name="DieresisAcute" unicode="&#xf6cc;" horiz-adv-x="901" 
d="M817 1686v-166h-162v166h162zM242 1686v-166h-164v166h164zM434 1636h-80l152 248h225z" />
    <glyph glyph-name="Grave" unicode="&#xf6ce;" horiz-adv-x="591" 
d="M340 1776l164 -258h-105l-286 258h227z" />
    <glyph glyph-name="Hungarumlaut" unicode="&#xf6cf;" horiz-adv-x="776" 
d="M475 1518h-106l166 258h227zM137 1518h-106l166 258h227z" />
    <glyph glyph-name="Macron" unicode="&#xf6d0;" horiz-adv-x="747" 
d="M674 1550h-592v142h592v-142z" />
    <glyph glyph-name="cyrBreve" unicode="&#xf6d1;" horiz-adv-x="833" 
d="M418 1513q-148 0 -236 65t-98 179h152q16 -102 180 -102t198 102h146q-16 -113 -106 -179q-88 -66 -236 -65z" />
    <glyph glyph-name="cyrbreve" unicode="&#xf6d4;" horiz-adv-x="745" 
d="M500 1001h125q1 -94 -61 -150t-171 -56t-170 56t-61 150h127q-1 -92 105 -92t106 92z" />
    <glyph glyph-name="dieresisacute" unicode="&#xf6d7;" horiz-adv-x="696" 
d="M305 1042h-100l137 256h213zM193 977v-150h-144v150h144zM465 977v-150h-143v150h143z" />
    <glyph glyph-name="zerooldstyle" unicode="&#xf730;" horiz-adv-x="860" 
d="M213 329q0 -93 60 -153q61 -60 157 -59q96 0 157 59q60 60 60 150t-58 152q-57 62 -157 64t-160 -60q-60 -60 -59 -153zM68 328q0 132 98 238q98 108 263 108t263 -105q100 -100 100 -244q0 -145 -100 -243q-102 -98 -269 -98t-261 106t-94 238z" />
    <glyph glyph-name="oneoldstyle" unicode="&#xf731;" horiz-adv-x="454" 
d="M328 657v-657h-135v453l-125 -121v147l178 178h82z" />
    <glyph glyph-name="twooldstyle" unicode="&#xf732;" horiz-adv-x="608" 
d="M387 420q0 127 -141 127q-100 0 -168 -68l-62 113q109 82 238 82t204 -66q74 -66 74 -158t-52 -166q-52 -73 -169 -157h238l-60 -127h-499l84 70q127 104 173 144t93 101t47 105z" />
    <glyph glyph-name="threeoldstyle" unicode="&#xf733;" horiz-adv-x="649" 
d="M265 672q133 0 210 -64q82 -63 82 -159q0 -145 -139 -211q197 -51 196 -256q0 -131 -108 -215t-270 -84q-98 0 -205 41v131q102 -45 205 -45q231 0 231 180q0 82 -61 130t-177 46h-49v125h43q186 0 187 137q0 51 -43 84q-43 32 -128 32t-157 -59l-59 113q109 74 242 74z
" />
    <glyph glyph-name="fouroldstyle" unicode="&#xf734;" horiz-adv-x="690" 
d="M395 127v293l-211 -293h211zM532 127h144l-39 -127h-105v-315h-137v315h-387v78l441 594h83v-545z" />
    <glyph glyph-name="fiveoldstyle" unicode="&#xf735;" horiz-adv-x="673" 
d="M262 -315q-117 0 -209 43v131q92 -45 203 -45t171 59t60 152t-71 147q-72 53 -209 53h-125l137 432h414l-39 -127h-299l-64 -188q195 0 299 -88t104 -232t-92 -240q-93 -97 -280 -97z" />
    <glyph glyph-name="sixoldstyle" unicode="&#xf736;" horiz-adv-x="788" 
d="M215 286q0 -81 49 -130q49 -50 131 -50t132 50q51 50 51 128q0 77 -50 130t-133 53q-82 0 -131 -50t-49 -131zM414 594q131 0 219 -83t88 -211t-87 -224q-88 -96 -232 -96t-239 89t-95 226q0 90 30 180q30 91 73 151q42 60 75 103l209 268h180l-338 -430q51 27 117 27z
" />
    <glyph glyph-name="sevenoldstyle" unicode="&#xf737;" horiz-adv-x="661" 
d="M449 528h-449l70 127h592l-496 -970h-148z" />
    <glyph glyph-name="eightoldstyle" unicode="&#xf738;" horiz-adv-x="806" 
d="M543 743q0 59 -38 103q-37 44 -101 45q-64 0 -100 -43q-36 -42 -36 -102t38 -104t98 -44t100 43q39 43 39 102zM584 287q0 80 -50 132t-132 52t-130 -51q-49 -51 -49 -131t48 -131q48 -52 131 -52q82 0 132 50t50 131zM729 276q0 -120 -89 -208q-88 -88 -236 -88t-237 88
t-89 196q0 106 49 176t133 97q-63 27 -101 84t-38 129q0 112 79 190q78 78 204 78t205 -78t79 -190q0 -154 -133 -215q174 -57 174 -259z" />
    <glyph glyph-name="nineoldstyle" unicode="&#xf739;" horiz-adv-x="776" 
d="M387 545q-74 0 -124 -50t-50 -125t46 -124t123 -49t129 51t52 125t-51 123t-125 49zM68 366q0 120 86 214q86 92 227 92t233 -86q94 -82 94 -206t-41 -222q-42 -98 -130 -213l-205 -264h-176l321 411q-55 -23 -98 -22q-141 0 -227 86q-84 90 -84 210z" />
    <glyph glyph-name="uniFEFF" unicode="&#xfeff;" horiz-adv-x="0" 
 />
    <glyph glyph-name="NULL" horiz-adv-x="0" 
 />
    <glyph glyph-name="CR" horiz-adv-x="681" 
 />
    <glyph glyph-name="afii10021.ss01" horiz-adv-x="1540" 
d="M768 1063l-428 -922h854zM1524 141v-446h-152v305h-1204v-305h-152v446l156 -4l600 1260l594 -1256h158z" />
    <glyph glyph-name="afii10069.ss01" horiz-adv-x="833" 
d="M700 123h123v-318h-133v195h-547v-195h-133v318h103v-2l293 555l294 -555v2zM260 123h291l-145 270z" />
    <glyph glyph-name="afii10024.ss01" horiz-adv-x="1814" 
d="M707 780h124v602h154v-602h127q88 0 143 60t78 125l64 182q88 254 289 254h53v-146h-23q-68 0 -108 -45t-90 -170l-62 -157q-25 -63 -57 -99q-33 -35 -105 -59q168 -27 222 -231l49 -187q27 -102 73 -148t131 -46v-138q-37 -6 -111 -6q-155 0 -233 277l-34 127
q-35 129 -100 197t-177 67h-129v-637h-154v637h-126q-113 1 -175 -63t-106 -203l-37 -123q-85 -279 -233 -279q-72 0 -109 6v138q82 0 126 44t75 150l55 185q31 100 73 151t132 82q-113 35 -152 156l-55 159q-41 117 -88 166t-115 49h-22v146h55q199 0 287 -254l63 -180
q70 -187 228 -187z" />
    <glyph glyph-name="afii10072.ss01" horiz-adv-x="1013" 
d="M573 0h-135v274h-49q-51 0 -78 -26t-59 -101l-14 -32q-29 -72 -61 -101q-51 -46 -165 -20v119h29q63 0 100 98l17 39q25 66 82 86q-49 23 -66 78l-12 41q-31 84 -90 94h-29v121h70q113 0 155 -133l15 -41q33 -98 106 -99h49v258h135v-258h50q70 0 104 99l14 39
q33 135 156 135h68v-123h-27q-66 -10 -92 -92l-12 -41q-18 -57 -64 -78q57 -33 80 -86l16 -39q39 -98 103 -98h28v-119q-35 -8 -85 -8t-82 28t-60 101l-12 32q-30 66 -56 97t-81 30h-48v-274z" />
    <glyph glyph-name="afii10028.ss01" horiz-adv-x="1277" 
d="M578 639h-213v-639h-152v1382h152v-602h213q82 0 137 56t84 137l63 174q94 254 287 254h55v-146h-24q-68 0 -109 -45t-90 -170l-61 -157q-27 -70 -60 -105t-100 -53q166 -31 219 -231l49 -187q53 -195 205 -194v-138q-37 -6 -94 -6q-93 -1 -151 63t-99 214l-35 127
q-37 133 -100 199t-176 67z" />
    <glyph glyph-name="afii10076.ss01" horiz-adv-x="739" 
d="M242 655v-258h80q72 0 104 99l12 41q43 133 158 133h68v-123h-29q-63 -10 -90 -92l-13 -41q-18 -57 -63 -78q59 -33 80 -86l14 -39q43 -98 105 -98h28v-119q-35 -8 -86 -8t-82 28t-59 101l-14 32q-27 70 -55 99t-81 28h-77v-274h-133v655h133z" />
    <glyph glyph-name="afii10029.ss01" horiz-adv-x="1339" 
d="M1323 0h-176l-490 1055l-475 -1055h-166l646 1397z" />
    <glyph glyph-name="afii10077.ss01" horiz-adv-x="686" 
d="M539 0l-197 387l-195 -387h-141l336 676l338 -676h-141z" />
    <glyph glyph-name="afii10058.ss01" horiz-adv-x="1882" 
d="M1374 829q231 1 347 -113t116 -284t-94 -293q-104 -139 -379 -139h-217l-494 1067l-471 -1067h-166l646 1397l268 -568h444zM1364 688h-367l260 -547h103q313 0 313 273q0 130 -82 202t-227 72z" />
    <glyph glyph-name="afii10106.ss01" horiz-adv-x="1015" 
d="M719 117q59 -1 92 27t33 73q0 90 -125 90h-195l97 -190h98zM723 0h-184l-197 387l-195 -387h-141l336 676l125 -252h270q119 0 184 -58t65 -140t-47 -145q-58 -81 -216 -81z" />
    </font>
</defs>
</svg>
